Lineal-Thin.ufo
<glyph name="exclam" format="2">
  <advance width="285"/>
  <unicode hex="0021"/>
  <note>
exclam
</note>
  <outline>
    <contour>
      <point x="128" y="172" type="line"/>
      <point x="158" y="172" type="line"/>
      <point x="165" y="706" type="line"/>
      <point x="121" y="706" type="line"/>
    </contour>
    <component base="period" xOffset="50" identifier="C58C6AF9"/>
  </outline>
</glyph>
<glyph name="numbersign" format="2">
  <advance width="632"/>
  <unicode hex="0023"/>
  <note>
numbersign
</note>
  <outline>
    <contour>
      <point x="375" y="-1" type="line"/>
      <point x="415" y="-1" type="line"/>
      <point x="477" y="706" type="line"/>
      <point x="437" y="706" type="line"/>
    </contour>
    <contour>
      <point x="80" y="198" type="line"/>
      <point x="572" y="198" type="line"/>
      <point x="572" y="238" type="line"/>
      <point x="80" y="238" type="line"/>
    </contour>
    <contour>
      <point x="166" y="-1" type="line"/>
      <point x="206" y="-1" type="line"/>
      <point x="268" y="706" type="line"/>
      <point x="228" y="706" type="line"/>
    </contour>
    <contour>
      <point x="80" y="451" type="line"/>
      <point x="572" y="451" type="line"/>
      <point x="572" y="491" type="line"/>
      <point x="80" y="491" type="line"/>
    </contour>
  </outline>
</glyph>
<glyph name="dollar" format="2">
  <advance width="415"/>
  <unicode hex="0024"/>
  <note>
dollar
</note>
  <outline>
    <contour>
      <point x="190" y="0" type="line"/>
      <point x="230" y="0" type="line"/>
      <point x="225" y="361" type="line"/>
      <point x="230" y="706" type="line"/>
      <point x="190" y="706" type="line"/>
      <point x="195" y="361" type="line"/>
    </contour>
    <component base="s" yOffset="99"/>
  </outline>
</glyph>
<glyph name="percent" format="2">
  <advance width="718"/>
  <unicode hex="0025"/>
  <note>
percent
</note>
  <outline>
    <contour>
      <point x="90" y="-10" type="line"/>
      <point x="93" y="-10" type="line"/>
      <point x="625" y="659" type="line"/>
      <point x="625" y="716" type="line"/>
      <point x="623" y="716" type="line"/>
      <point x="90" y="46" type="line"/>
    </contour>
    <contour>
      <point x="539" y="0" type="curve" smooth="yes"/>
      <point x="618" y="0"/>
      <point x="678" y="61"/>
      <point x="678" y="140" type="curve" smooth="yes"/>
      <point x="678" y="219"/>
      <point x="618" y="278"/>
      <point x="539" y="278" type="curve" smooth="yes"/>
      <point x="460" y="278"/>
      <point x="400" y="219"/>
      <point x="400" y="140" type="curve" smooth="yes"/>
      <point x="400" y="61"/>
      <point x="460" y="0"/>
    </contour>
    <contour>
      <point x="539" y="41" type="curve" smooth="yes"/>
      <point x="484" y="41"/>
      <point x="441" y="84"/>
      <point x="441" y="140" type="curve" smooth="yes"/>
      <point x="441" y="195"/>
      <point x="484" y="238"/>
      <point x="539" y="238" type="curve" smooth="yes"/>
      <point x="594" y="238"/>
      <point x="638" y="195"/>
      <point x="638" y="140" type="curve" smooth="yes"/>
      <point x="638" y="84"/>
      <point x="594" y="41"/>
    </contour>
    <contour>
      <point x="179" y="429" type="curve" smooth="yes"/>
      <point x="259" y="429"/>
      <point x="318" y="490"/>
      <point x="318" y="569" type="curve" smooth="yes"/>
      <point x="318" y="647"/>
      <point x="259" y="707"/>
      <point x="179" y="707" type="curve" smooth="yes"/>
      <point x="101" y="707"/>
      <point x="40" y="647"/>
      <point x="40" y="569" type="curve" smooth="yes"/>
      <point x="40" y="490"/>
      <point x="101" y="429"/>
    </contour>
    <contour>
      <point x="178" y="468" type="curve" smooth="yes"/>
      <point x="122" y="468"/>
      <point x="78" y="511"/>
      <point x="78" y="569" type="curve" smooth="yes"/>
      <point x="78" y="626"/>
      <point x="122" y="669"/>
      <point x="178" y="669" type="curve" smooth="yes"/>
      <point x="236" y="669"/>
      <point x="282" y="626"/>
      <point x="282" y="569" type="curve" smooth="yes"/>
      <point x="282" y="511"/>
      <point x="236" y="468"/>
    </contour>
  </outline>
</glyph>
<glyph name="ampersand" format="2">
  <advance width="452"/>
  <unicode hex="0026"/>
  <note>
ampersand
</note>
  <outline>
    <contour>
      <point x="232" y="0" type="curve" smooth="yes"/>
      <point x="398" y="0" type="line"/>
      <point x="398" y="41" type="line"/>
      <point x="252" y="41" type="line" smooth="yes"/>
      <point x="161" y="41"/>
      <point x="90" y="110"/>
      <point x="90" y="201" type="curve" smooth="yes"/>
      <point x="90" y="294"/>
      <point x="157" y="365"/>
      <point x="252" y="365" type="curve"/>
      <point x="262" y="404" type="line"/>
      <point x="143" y="409"/>
      <point x="50" y="319"/>
      <point x="50" y="201" type="curve" smooth="yes"/>
      <point x="50" y="95"/>
      <point x="129" y="0"/>
    </contour>
    <contour>
      <point x="309" y="250" type="line"/>
      <point x="353" y="250" type="line"/>
      <point x="145" y="666" type="line"/>
      <point x="398" y="666" type="line"/>
      <point x="398" y="706" type="line"/>
      <point x="81" y="706" type="line"/>
      <point x="82" y="702" type="line"/>
    </contour>
  </outline>
</glyph>
<glyph name="quotesingle" format="2">
  <advance width="180"/>
  <unicode hex="0027"/>
  <note>
quotesingle
</note>
  <outline>
    <contour>
      <point x="75" y="476" type="line"/>
      <point x="105" y="476" type="line"/>
      <point x="116" y="706" type="line"/>
      <point x="64" y="706" type="line"/>
    </contour>
  </outline>
</glyph>
<glyph name="parenleft" format="2">
  <advance width="214"/>
  <unicode hex="0028"/>
  <note>
parenleft
</note>
  <outline>
    <contour>
      <point x="173" y="-34" type="curve"/>
      <point x="203" y="-8" type="line"/>
      <point x="139" y="68"/>
      <point x="75" y="197"/>
      <point x="75" y="350" type="curve" smooth="yes"/>
      <point x="75" y="503"/>
      <point x="139" y="632"/>
      <point x="203" y="708" type="curve"/>
      <point x="173" y="734" type="line"/>
      <point x="89" y="641"/>
      <point x="35" y="485"/>
      <point x="35" y="350" type="curve" smooth="yes"/>
      <point x="35" y="215"/>
      <point x="89" y="59"/>
    </contour>
  </outline>
</glyph>
<glyph name="asterisk" format="2">
  <advance width="392"/>
  <unicode hex="002A"/>
  <note>
asterisk
</note>
  <outline>
    <contour>
      <point x="178" y="370" type="line"/>
      <point x="214" y="370" type="line"/>
      <point x="214" y="509" type="line"/>
      <point x="332" y="441" type="line"/>
      <point x="352" y="474" type="line"/>
      <point x="233" y="541" type="line"/>
      <point x="352" y="611" type="line"/>
      <point x="331" y="642" type="line"/>
      <point x="214" y="573" type="line"/>
      <point x="214" y="711" type="line"/>
      <point x="178" y="711" type="line"/>
      <point x="178" y="573" type="line"/>
      <point x="61" y="642" type="line"/>
      <point x="40" y="611" type="line"/>
      <point x="160" y="541" type="line"/>
      <point x="40" y="474" type="line"/>
      <point x="60" y="441" type="line"/>
      <point x="178" y="509" type="line"/>
    </contour>
  </outline>
</glyph>
<glyph name="plus" format="2">
  <advance width="556"/>
  <unicode hex="002B"/>
  <note>
plus
</note>
  <outline>
    <contour>
      <point x="259" y="135" type="line"/>
      <point x="299" y="135" type="line"/>
      <point x="299" y="314" type="line"/>
      <point x="476" y="314" type="line"/>
      <point x="476" y="354" type="line"/>
      <point x="299" y="354" type="line"/>
      <point x="299" y="531" type="line"/>
      <point x="259" y="531" type="line"/>
      <point x="259" y="354" type="line"/>
      <point x="80" y="354" type="line"/>
      <point x="80" y="314" type="line"/>
      <point x="259" y="314" type="line"/>
    </contour>
  </outline>
</glyph>
<glyph name="comma" format="2">
  <advance width="157"/>
  <unicode hex="002C"/>
  <note>
comma
</note>
  <outline>
    <contour>
      <point x="50" y="-106" type="line"/>
      <point x="80" y="-106" type="line"/>
      <point x="107" y="109" type="line"/>
      <point x="60" y="109" type="line"/>
    </contour>
  </outline>
</glyph>
<glyph name="hyphen" format="2">
  <advance width="472"/>
  <unicode hex="002D"/>
  <note>
hyphen
</note>
  <outline>
    <contour>
      <point x="80" y="233" type="line"/>
      <point x="392" y="233" type="line"/>
      <point x="392" y="273" type="line"/>
      <point x="80" y="273" type="line"/>
    </contour>
  </outline>
</glyph>
<glyph name="period" format="2">
  <advance width="185"/>
  <unicode hex="002E"/>
  <note>
period
</note>
  <outline>
    <contour>
      <point x="93" y="0" type="curve" smooth="yes"/>
      <point x="116" y="0"/>
      <point x="135" y="19"/>
      <point x="135" y="43" type="curve" smooth="yes"/>
      <point x="135" y="65"/>
      <point x="116" y="85"/>
      <point x="93" y="85" type="curve" smooth="yes"/>
      <point x="70" y="85"/>
      <point x="50" y="65"/>
      <point x="50" y="43" type="curve" smooth="yes"/>
      <point x="50" y="19"/>
      <point x="70" y="0"/>
    </contour>
  </outline>
</glyph>
<glyph name="one" format="2">
  <advance width="307"/>
  <unicode hex="0031"/>
  <note>
one
</note>
  <outline>
    <contour>
      <point x="167" y="0" type="line"/>
      <point x="207" y="0" type="line"/>
      <point x="207" y="725" type="line"/>
      <point x="206" y="726" type="line"/>
      <point x="40" y="615" type="line"/>
      <point x="40" y="568" type="line"/>
      <point x="167" y="652" type="line"/>
    </contour>
  </outline>
</glyph>
<glyph name="two" format="2">
  <advance width="556"/>
  <unicode hex="0032"/>
  <note>
two
</note>
  <outline>
    <contour>
      <point x="50" y="0" type="line"/>
      <point x="474" y="0" type="line"/>
      <point x="474" y="40" type="line"/>
      <point x="117" y="40" type="line"/>
      <point x="244" y="287" type="line"/>
      <point x="293" y="287" type="line" smooth="yes"/>
      <point x="414" y="287"/>
      <point x="506" y="380"/>
      <point x="506" y="502" type="curve" smooth="yes"/>
      <point x="506" y="624"/>
      <point x="414" y="716"/>
      <point x="293" y="716" type="curve" smooth="yes"/>
      <point x="170" y="716"/>
      <point x="77" y="624"/>
      <point x="77" y="502" type="curve" smooth="yes"/>
      <point x="77" y="499" type="line"/>
      <point x="118" y="499" type="line"/>
      <point x="118" y="502" type="line" smooth="yes"/>
      <point x="118" y="600"/>
      <point x="195" y="676"/>
      <point x="293" y="676" type="curve" smooth="yes"/>
      <point x="390" y="676"/>
      <point x="467" y="600"/>
      <point x="467" y="502" type="curve" smooth="yes"/>
      <point x="467" y="404"/>
      <point x="390" y="328"/>
      <point x="293" y="328" type="curve" smooth="yes"/>
      <point x="221" y="328" type="line"/>
    </contour>
  </outline>
</glyph>
<glyph name="three" format="2">
  <advance width="509"/>
  <unicode hex="0033"/>
  <note>
three
</note>
  <outline>
    <contour>
      <point x="246" y="-10" type="curve" smooth="yes"/>
      <point x="367" y="-10"/>
      <point x="459" y="82"/>
      <point x="459" y="204" type="curve" smooth="yes"/>
      <point x="459" y="326"/>
      <point x="367" y="419"/>
      <point x="246" y="419" type="curve" smooth="yes"/>
      <point x="136" y="419" type="line"/>
      <point x="136" y="378" type="line"/>
      <point x="246" y="378" type="line" smooth="yes"/>
      <point x="343" y="378"/>
      <point x="420" y="302"/>
      <point x="420" y="204" type="curve" smooth="yes"/>
      <point x="420" y="106"/>
      <point x="343" y="30"/>
      <point x="246" y="30" type="curve" smooth="yes"/>
      <point x="148" y="30"/>
      <point x="71" y="106"/>
      <point x="71" y="204" type="curve" smooth="yes"/>
      <point x="71" y="236" type="line"/>
      <point x="30" y="236" type="line"/>
      <point x="30" y="204" type="line" smooth="yes"/>
      <point x="30" y="82"/>
      <point x="123" y="-10"/>
    </contour>
    <contour>
      <point x="300" y="386" type="line"/>
      <point x="434" y="705" type="line"/>
      <point x="433" y="706" type="line"/>
      <point x="58" y="706" type="line"/>
      <point x="58" y="666" type="line"/>
      <point x="376" y="666" type="line"/>
      <point x="262" y="393" type="line"/>
    </contour>
  </outline>
</glyph>
<glyph name="four" format="2">
  <advance width="553"/>
  <unicode hex="0034"/>
  <note>
four
</note>
  <outline>
    <contour>
      <point x="413" y="0" type="line"/>
      <point x="453" y="0" type="line"/>
      <point x="453" y="513" type="line"/>
      <point x="413" y="513" type="line"/>
      <point x="413" y="196" type="line"/>
      <point x="84" y="196" type="line"/>
      <point x="340" y="706" type="line"/>
      <point x="296" y="706" type="line"/>
      <point x="20" y="156" type="line"/>
      <point x="413" y="156" type="line"/>
    </contour>
  </outline>
</glyph>
<glyph name="five" format="2">
  <advance width="589"/>
  <unicode hex="0035"/>
  <note>
five
</note>
  <outline>
    <contour>
      <point x="306" y="-10" type="curve" smooth="yes"/>
      <point x="427" y="-10"/>
      <point x="519" y="82"/>
      <point x="519" y="204" type="curve" smooth="yes"/>
      <point x="519" y="326"/>
      <point x="427" y="419"/>
      <point x="306" y="419" type="curve" smooth="yes"/>
      <point x="223" y="419" type="line"/>
      <point x="146" y="666" type="line"/>
      <point x="487" y="666" type="line"/>
      <point x="487" y="706" type="line"/>
      <point x="93" y="706" type="line"/>
      <point x="194" y="378" type="line"/>
      <point x="306" y="378" type="line" smooth="yes"/>
      <point x="403" y="378"/>
      <point x="480" y="302"/>
      <point x="480" y="204" type="curve" smooth="yes"/>
      <point x="480" y="106"/>
      <point x="403" y="30"/>
      <point x="306" y="30" type="curve" smooth="yes"/>
      <point x="208" y="30"/>
      <point x="131" y="106"/>
      <point x="131" y="204" type="curve" smooth="yes"/>
      <point x="131" y="207" type="line"/>
      <point x="90" y="207" type="line"/>
      <point x="90" y="204" type="line" smooth="yes"/>
      <point x="90" y="82"/>
      <point x="183" y="-10"/>
    </contour>
  </outline>
</glyph>
<glyph name="six" format="2">
  <advance width="607"/>
  <unicode hex="0036"/>
  <note>
six
</note>
  <outline>
    <contour>
      <point x="307" y="-10" type="curve" smooth="yes"/>
      <point x="456" y="-10"/>
      <point x="561" y="111"/>
      <point x="561" y="250" type="curve" smooth="yes"/>
      <point x="561" y="441"/>
      <point x="362" y="546"/>
      <point x="208" y="486" type="curve"/>
      <point x="366" y="706" type="line"/>
      <point x="315" y="706" type="line"/>
      <point x="109" y="417" type="line" smooth="yes"/>
      <point x="62" y="351"/>
      <point x="46" y="283"/>
      <point x="46" y="243" type="curve" smooth="yes"/>
      <point x="46" y="94"/>
      <point x="168" y="-10"/>
    </contour>
    <contour>
      <point x="306" y="31" type="curve" smooth="yes"/>
      <point x="188" y="31"/>
      <point x="88" y="120"/>
      <point x="88" y="244" type="curve" smooth="yes"/>
      <point x="88" y="361"/>
      <point x="175" y="461"/>
      <point x="300" y="461" type="curve" smooth="yes"/>
      <point x="420" y="461"/>
      <point x="519" y="371"/>
      <point x="519" y="249" type="curve" smooth="yes"/>
      <point x="519" y="132"/>
      <point x="431" y="31"/>
    </contour>
  </outline>
</glyph>
<glyph name="seven" format="2">
  <advance width="483"/>
  <unicode hex="0037"/>
  <note>
seven
</note>
  <outline>
    <contour>
      <point x="85" y="0" type="line"/>
      <point x="128" y="0" type="line"/>
      <point x="453" y="706" type="line"/>
      <point x="54" y="706" type="line"/>
      <point x="54" y="664" type="line"/>
      <point x="388" y="664" type="line"/>
    </contour>
  </outline>
</glyph>
<glyph name="eight" format="2">
  <advance width="530"/>
  <unicode hex="0038"/>
  <note>
eight
</note>
  <outline>
    <contour>
      <point x="265" y="-16" type="curve" smooth="yes"/>
      <point x="374" y="-16"/>
      <point x="460" y="69"/>
      <point x="460" y="178" type="curve" smooth="yes"/>
      <point x="460" y="256"/>
      <point x="417" y="322"/>
      <point x="353" y="353" type="curve"/>
      <point x="417" y="385"/>
      <point x="460" y="450"/>
      <point x="460" y="528" type="curve" smooth="yes"/>
      <point x="460" y="637"/>
      <point x="374" y="722"/>
      <point x="265" y="722" type="curve" smooth="yes"/>
      <point x="156" y="722"/>
      <point x="70" y="637"/>
      <point x="70" y="528" type="curve" smooth="yes"/>
      <point x="70" y="450"/>
      <point x="113" y="385"/>
      <point x="177" y="353" type="curve"/>
      <point x="113" y="322"/>
      <point x="70" y="256"/>
      <point x="70" y="178" type="curve" smooth="yes"/>
      <point x="70" y="69"/>
      <point x="156" y="-16"/>
    </contour>
    <contour>
      <point x="265" y="23" type="curve" smooth="yes"/>
      <point x="178" y="23"/>
      <point x="109" y="91"/>
      <point x="109" y="178" type="curve" smooth="yes"/>
      <point x="109" y="265"/>
      <point x="178" y="333"/>
      <point x="265" y="333" type="curve" smooth="yes"/>
      <point x="352" y="333"/>
      <point x="421" y="265"/>
      <point x="421" y="178" type="curve" smooth="yes"/>
      <point x="421" y="91"/>
      <point x="352" y="23"/>
    </contour>
    <contour>
      <point x="265" y="374" type="curve" smooth="yes"/>
      <point x="178" y="374"/>
      <point x="110" y="441"/>
      <point x="110" y="528" type="curve" smooth="yes"/>
      <point x="110" y="613"/>
      <point x="178" y="681"/>
      <point x="265" y="681" type="curve" smooth="yes"/>
      <point x="352" y="681"/>
      <point x="420" y="613"/>
      <point x="420" y="528" type="curve" smooth="yes"/>
      <point x="420" y="441"/>
      <point x="352" y="374"/>
    </contour>
  </outline>
</glyph>
<glyph name="nine" format="2">
  <advance width="607"/>
  <unicode hex="0039"/>
  <note>
nine
</note>
  <outline>
    <contour>
      <point x="241" y="0" type="line"/>
      <point x="292" y="0" type="line"/>
      <point x="498" y="289" type="line" smooth="yes"/>
      <point x="545" y="355"/>
      <point x="561" y="423"/>
      <point x="561" y="463" type="curve" smooth="yes"/>
      <point x="561" y="612"/>
      <point x="439" y="716"/>
      <point x="300" y="716" type="curve" smooth="yes"/>
      <point x="151" y="716"/>
      <point x="46" y="595"/>
      <point x="46" y="456" type="curve" smooth="yes"/>
      <point x="46" y="265"/>
      <point x="245" y="160"/>
      <point x="399" y="220" type="curve"/>
    </contour>
    <contour>
      <point x="307" y="245" type="curve" smooth="yes"/>
      <point x="187" y="245"/>
      <point x="88" y="335"/>
      <point x="88" y="457" type="curve" smooth="yes"/>
      <point x="88" y="574"/>
      <point x="176" y="675"/>
      <point x="301" y="675" type="curve" smooth="yes"/>
      <point x="419" y="675"/>
      <point x="519" y="586"/>
      <point x="519" y="462" type="curve" smooth="yes"/>
      <point x="519" y="345"/>
      <point x="432" y="245"/>
    </contour>
  </outline>
</glyph>
<glyph name="semicolon" format="2">
  <advance width="185"/>
  <unicode hex="003B"/>
  <note>
semicolon
</note>
  <outline>
    <contour>
      <point x="64" y="-156" type="line"/>
      <point x="94" y="-156" type="line"/>
      <point x="121" y="109" type="line"/>
      <point x="64" y="109" type="line"/>
    </contour>
    <contour>
      <point x="93" y="428" type="curve" smooth="yes"/>
      <point x="116" y="428"/>
      <point x="135" y="447"/>
      <point x="135" y="471" type="curve" smooth="yes"/>
      <point x="135" y="493"/>
      <point x="116" y="513"/>
      <point x="93" y="513" type="curve" smooth="yes"/>
      <point x="70" y="513"/>
      <point x="50" y="493"/>
      <point x="50" y="471" type="curve" smooth="yes"/>
      <point x="50" y="447"/>
      <point x="70" y="428"/>
    </contour>
  </outline>
</glyph>
<glyph name="less" format="2">
  <advance width="340"/>
  <unicode hex="003C"/>
  <note>
less
</note>
  <outline>
    <contour>
      <point x="280" y="135" type="line"/>
      <point x="280" y="180" type="line"/>
      <point x="92" y="293" type="line"/>
      <point x="280" y="409" type="line"/>
      <point x="280" y="452" type="line"/>
      <point x="30" y="296" type="line"/>
      <point x="30" y="290" type="line"/>
    </contour>
  </outline>
</glyph>
<glyph name="equal" format="2">
  <advance width="512"/>
  <unicode hex="003D"/>
  <note>
equal
</note>
  <outline>
    <contour>
      <point x="80" y="374" type="line"/>
      <point x="432" y="374" type="line"/>
      <point x="432" y="414" type="line"/>
      <point x="80" y="414" type="line"/>
    </contour>
    <contour>
      <point x="80" y="167" type="line"/>
      <point x="432" y="167" type="line"/>
      <point x="432" y="207" type="line"/>
      <point x="80" y="207" type="line"/>
    </contour>
  </outline>
</glyph>
<glyph name="question" format="2">
  <advance width="503"/>
  <unicode hex="003F"/>
  <note>
question
</note>
  <outline>
    <contour>
      <point x="178" y="289" type="line"/>
      <point x="229" y="289" type="line" smooth="yes"/>
      <point x="357" y="289"/>
      <point x="461" y="369"/>
      <point x="461" y="496" type="curve" smooth="yes"/>
      <point x="461" y="616"/>
      <point x="368" y="706"/>
      <point x="250" y="706" type="curve" smooth="yes"/>
      <point x="138" y="706"/>
      <point x="40" y="627"/>
      <point x="40" y="519" type="curve" smooth="yes"/>
      <point x="40" y="510" type="line"/>
      <point x="81" y="510" type="line"/>
      <point x="81" y="519" type="line" smooth="yes"/>
      <point x="81" y="592"/>
      <point x="152" y="667"/>
      <point x="250" y="667" type="curve" smooth="yes"/>
      <point x="346" y="667"/>
      <point x="423" y="592"/>
      <point x="423" y="496" type="curve" smooth="yes"/>
      <point x="423" y="398"/>
      <point x="346" y="327"/>
      <point x="230" y="327" type="curve" smooth="yes"/>
      <point x="176" y="327" type="line"/>
    </contour>
    <component base="period" xOffset="108" identifier="33396BAD"/>
    <contour>
      <point x="187" y="167" type="line"/>
      <point x="217" y="167" type="line"/>
      <point x="225" y="301" type="line"/>
      <point x="177" y="316" type="line"/>
    </contour>
  </outline>
</glyph>
<glyph name="at" format="2">
  <advance width="1011"/>
  <unicode hex="0040"/>
  <note>
at
</note>
  <outline>
    <contour>
      <point x="506" y="-94" type="curve" smooth="yes"/>
      <point x="514" y="-94"/>
      <point x="522" y="-94"/>
      <point x="538" y="-92" type="curve"/>
      <point x="532" y="-55" type="line"/>
      <point x="524" y="-56"/>
      <point x="515" y="-56"/>
      <point x="506" y="-56" type="curve" smooth="yes"/>
      <point x="285" y="-56"/>
      <point x="115" y="114"/>
      <point x="115" y="336" type="curve" smooth="yes"/>
      <point x="115" y="557"/>
      <point x="285" y="726"/>
      <point x="506" y="726" type="curve" smooth="yes"/>
      <point x="729" y="726"/>
      <point x="899" y="563"/>
      <point x="896" y="336" type="curve"/>
      <point x="896" y="183" type="line"/>
      <point x="896" y="0" type="line"/>
      <point x="924" y="0" type="line"/>
      <point x="935" y="0" type="line"/>
      <point x="935" y="336" type="line"/>
      <point x="935" y="579"/>
      <point x="749" y="765"/>
      <point x="506" y="765" type="curve" smooth="yes"/>
      <point x="262" y="765"/>
      <point x="76" y="579"/>
      <point x="76" y="336" type="curve" smooth="yes"/>
      <point x="76" y="92"/>
      <point x="262" y="-94"/>
    </contour>
    <contour>
      <point x="676" y="1" type="curve" smooth="yes"/>
      <point x="818" y="1"/>
      <point x="933" y="116"/>
      <point x="933" y="259" type="curve" smooth="yes"/>
      <point x="933" y="396"/>
      <point x="818" y="512"/>
      <point x="676" y="512" type="curve" smooth="yes"/>
      <point x="538" y="512"/>
      <point x="421" y="396"/>
      <point x="421" y="259" type="curve" smooth="yes"/>
      <point x="421" y="116"/>
      <point x="538" y="1"/>
    </contour>
    <contour>
      <point x="676" y="42" type="curve" smooth="yes"/>
      <point x="557" y="42"/>
      <point x="463" y="138"/>
      <point x="463" y="256" type="curve" smooth="yes"/>
      <point x="463" y="376"/>
      <point x="557" y="471"/>
      <point x="676" y="471" type="curve" smooth="yes"/>
      <point x="797" y="471"/>
      <point x="893" y="376"/>
      <point x="893" y="256" type="curve" smooth="yes"/>
      <point x="893" y="138"/>
      <point x="797" y="42"/>
    </contour>
  </outline>
</glyph>
<glyph name="A" format="2">
  <advance width="568"/>
  <unicode hex="0041"/>
  <note>
A
</note>
  <anchor x="284" y="0" name="bottom"/>
  <anchor x="538" y="0" name="ogonek"/>
  <anchor x="284" y="706" name="top"/>
  <outline>
    <contour>
      <point x="30" y="0" type="line"/>
      <point x="72" y="0" type="line"/>
      <point x="284" y="633" type="line"/>
      <point x="496" y="0" type="line"/>
      <point x="538" y="0" type="line"/>
      <point x="285" y="757" type="line"/>
      <point x="283" y="757" type="line"/>
    </contour>
    <contour>
      <point x="148" y="274" type="line"/>
      <point x="420" y="274" type="line"/>
      <point x="406" y="317" type="line"/>
      <point x="162" y="317" type="line"/>
    </contour>
  </outline>
</glyph>
<glyph name="B" format="2">
  <advance width="395"/>
  <unicode hex="0042"/>
  <note>
B
</note>
  <anchor x="121" y="706" name="top"/>
  <outline>
    <contour>
      <point x="100" y="0" type="line"/>
      <point x="159" y="0" type="line" smooth="yes"/>
      <point x="262" y="0"/>
      <point x="345" y="83"/>
      <point x="345" y="188" type="curve" smooth="yes"/>
      <point x="345" y="260"/>
      <point x="304" y="322"/>
      <point x="243" y="353" type="curve"/>
      <point x="304" y="384"/>
      <point x="345" y="447"/>
      <point x="345" y="520" type="curve" smooth="yes"/>
      <point x="345" y="623"/>
      <point x="262" y="706"/>
      <point x="159" y="706" type="curve" smooth="yes"/>
      <point x="100" y="706" type="line"/>
      <point x="100" y="665" type="line"/>
      <point x="159" y="665" type="line" smooth="yes"/>
      <point x="239" y="665"/>
      <point x="305" y="601"/>
      <point x="305" y="520" type="curve" smooth="yes"/>
      <point x="305" y="438"/>
      <point x="239" y="373"/>
      <point x="159" y="373" type="curve" smooth="yes"/>
      <point x="100" y="373" type="line"/>
      <point x="100" y="332" type="line"/>
      <point x="159" y="332" type="line" smooth="yes"/>
      <point x="239" y="332"/>
      <point x="305" y="268"/>
      <point x="305" y="188" type="curve" smooth="yes"/>
      <point x="305" y="105"/>
      <point x="239" y="40"/>
      <point x="159" y="40" type="curve" smooth="yes"/>
      <point x="100" y="40" type="line"/>
    </contour>
    <contour>
      <point x="100" y="0" type="line"/>
      <point x="140" y="0" type="line"/>
      <point x="140" y="706" type="line"/>
      <point x="100" y="706" type="line"/>
    </contour>
  </outline>
</glyph>
<glyph name="C" format="2">
  <advance width="464"/>
  <unicode hex="0043"/>
  <note>
C
</note>
  <anchor x="278" y="10" name="bottom"/>
  <anchor x="330" y="706" name="top"/>
  <outline>
    <contour>
      <point x="414" y="-14" type="curve"/>
      <point x="414" y="26" type="line"/>
      <point x="227" y="26"/>
      <point x="86" y="167"/>
      <point x="86" y="353" type="curve" smooth="yes"/>
      <point x="86" y="539"/>
      <point x="227" y="680"/>
      <point x="414" y="680" type="curve"/>
      <point x="414" y="720" type="line"/>
      <point x="205" y="720"/>
      <point x="46" y="561"/>
      <point x="46" y="353" type="curve" smooth="yes"/>
      <point x="46" y="145"/>
      <point x="205" y="-14"/>
    </contour>
  </outline>
</glyph>
<glyph name="D" format="2">
  <advance width="540"/>
  <unicode hex="0044"/>
  <note>
D
</note>
  <anchor x="143" y="0" name="bottom"/>
  <anchor x="272" y="353" name="center"/>
  <anchor x="203" y="707" name="top"/>
  <outline>
    <contour>
      <point x="100" y="0" type="line"/>
      <point x="143" y="0" type="line" smooth="yes"/>
      <point x="342" y="2"/>
      <point x="494" y="154"/>
      <point x="494" y="354" type="curve" smooth="yes"/>
      <point x="494" y="553"/>
      <point x="342" y="706"/>
      <point x="143" y="707" type="curve" smooth="yes"/>
      <point x="100" y="707" type="line"/>
    </contour>
    <contour>
      <point x="143" y="42" type="curve"/>
      <point x="143" y="666" type="line"/>
      <point x="317" y="664"/>
      <point x="451" y="529"/>
      <point x="451" y="354" type="curve" smooth="yes"/>
      <point x="451" y="178"/>
      <point x="317" y="43"/>
    </contour>
  </outline>
</glyph>
<glyph name="E" format="2">
  <advance width="410"/>
  <unicode hex="0045"/>
  <note>
E
</note>
  <guideline x="235" y="374" angle="0"/>
  <anchor x="215" y="0" name="bottom"/>
  <anchor x="330" y="0" name="ogonek"/>
  <anchor x="215" y="706" name="top"/>
  <anchor x="10" y="706" name="topleft"/>
  <outline>
    <contour>
      <point x="100" y="0" type="line"/>
      <point x="330" y="0" type="line"/>
      <point x="330" y="40" type="line"/>
      <point x="140" y="40" type="line"/>
      <point x="140" y="374" type="line"/>
      <point x="330" y="374" type="line"/>
      <point x="330" y="414" type="line"/>
      <point x="140" y="414" type="line"/>
      <point x="140" y="666" type="line"/>
      <point x="330" y="666" type="line"/>
      <point x="330" y="706" type="line"/>
      <point x="100" y="706" type="line"/>
    </contour>
  </outline>
</glyph>
<glyph name="F" format="2">
  <advance width="400"/>
  <unicode hex="0046"/>
  <note>
F
</note>
  <outline>
    <contour>
      <point x="100" y="0" type="line"/>
      <point x="140" y="0" type="line"/>
      <point x="140" y="378" type="line"/>
      <point x="330" y="378" type="line"/>
      <point x="330" y="418" type="line"/>
      <point x="140" y="418" type="line"/>
      <point x="140" y="666" type="line"/>
      <point x="330" y="666" type="line"/>
      <point x="330" y="706" type="line"/>
      <point x="100" y="706" type="line"/>
    </contour>
  </outline>
</glyph>
<glyph name="G" format="2">
  <advance width="510"/>
  <unicode hex="0047"/>
  <note>
G
</note>
  <guideline x="440" y="198" angle="270"/>
  <anchor x="400" y="0" name="bottom"/>
  <anchor x="341" y="706" name="top"/>
  <outline>
    <contour>
      <point x="400" y="0" type="curve"/>
      <point x="400" y="41" type="line"/>
      <point x="223" y="41"/>
      <point x="88" y="177"/>
      <point x="88" y="353" type="curve" smooth="yes"/>
      <point x="88" y="548"/>
      <point x="240" y="693"/>
      <point x="440" y="680" type="curve"/>
      <point x="440" y="719" type="line"/>
      <point x="218" y="733"/>
      <point x="46" y="570"/>
      <point x="46" y="353" type="curve" smooth="yes"/>
      <point x="46" y="153"/>
      <point x="199" y="0"/>
    </contour>
    <contour>
      <point x="440" y="0" type="curve"/>
      <point x="440" y="395" type="line"/>
      <point x="400" y="395" type="line"/>
      <point x="400" y="0" type="line"/>
      <point x="413" y="0"/>
      <point x="427" y="0"/>
    </contour>
  </outline>
</glyph>
<glyph name="H" format="2">
  <advance width="550"/>
  <unicode hex="0048"/>
  <note>
H
</note>
  <anchor x="275" y="0" name="bottom"/>
  <anchor x="275" y="353" name="center"/>
  <anchor x="275" y="706" name="top"/>
  <anchor x="20" y="706" name="topleft"/>
  <outline>
    <contour>
      <point x="100" y="706" type="line"/>
      <point x="100" y="0" type="line"/>
      <point x="140" y="0" type="line"/>
      <point x="140" y="332" type="line"/>
      <point x="410" y="332" type="line"/>
      <point x="410" y="0" type="line"/>
      <point x="450" y="0" type="line"/>
      <point x="450" y="706" type="line"/>
      <point x="410" y="706" type="line"/>
      <point x="410" y="372" type="line"/>
      <point x="140" y="372" type="line"/>
      <point x="140" y="706" type="line"/>
    </contour>
  </outline>
</glyph>
<glyph name="J" format="2">
  <advance width="453"/>
  <unicode hex="004A"/>
  <note>
J
</note>
  <anchor x="237" y="0" name="bottom"/>
  <anchor x="342" y="706" name="top"/>
  <outline>
    <contour>
      <point x="196" y="-10" type="curve" smooth="yes"/>
      <point x="288" y="-10"/>
      <point x="363" y="67"/>
      <point x="363" y="158" type="curve" smooth="yes"/>
      <point x="363" y="706" type="line"/>
      <point x="322" y="706" type="line"/>
      <point x="322" y="157" type="line" smooth="yes"/>
      <point x="322" y="87"/>
      <point x="267" y="31"/>
      <point x="197" y="31" type="curve" smooth="yes"/>
      <point x="126" y="31"/>
      <point x="70" y="88"/>
      <point x="70" y="157" type="curve" smooth="yes"/>
      <point x="70" y="217" type="line"/>
      <point x="30" y="217" type="line"/>
      <point x="30" y="158" type="line" smooth="yes"/>
      <point x="30" y="68"/>
      <point x="103" y="-10"/>
    </contour>
  </outline>
</glyph>
<glyph name="K" format="2">
  <advance width="687"/>
  <unicode hex="004B"/>
  <note>
K
</note>
  <guideline y="660"/>
  <anchor x="339" y="0" name="bottom"/>
  <anchor x="339" y="706" name="top"/>
  <outline>
    <contour>
      <point x="676" y="-19" type="line"/>
      <point x="677" y="-18" type="line"/>
      <point x="677" y="29" type="line"/>
      <point x="120" y="373" type="line"/>
      <point x="120" y="324" type="line"/>
    </contour>
    <contour>
      <point x="100" y="0" type="line"/>
      <point x="140" y="0" type="line"/>
      <point x="140" y="706" type="line"/>
      <point x="100" y="706" type="line"/>
    </contour>
    <contour>
      <point x="120" y="337" type="line"/>
      <point x="677" y="677" type="line"/>
      <point x="677" y="725" type="line"/>
      <point x="676" y="726" type="line"/>
      <point x="120" y="386" type="line"/>
    </contour>
  </outline>
</glyph>
<glyph name="L" format="2">
  <advance width="340"/>
  <unicode hex="004C"/>
  <note>
L
</note>
  <anchor x="210" y="0" name="bottom"/>
  <anchor x="160" y="353" name="center"/>
  <anchor x="120" y="706" name="top"/>
  <anchor x="210" y="706" name="topright"/>
  <outline>
    <contour>
      <point x="100" y="0" type="line"/>
      <point x="310" y="0" type="line"/>
      <point x="310" y="40" type="line"/>
      <point x="140" y="40" type="line"/>
      <point x="140" y="706" type="line"/>
      <point x="100" y="706" type="line"/>
    </contour>
  </outline>
</glyph>
<glyph name="M" format="2">
  <advance width="787"/>
  <unicode hex="004D"/>
  <note>
M
</note>
  <anchor x="394" y="0" name="bottom"/>
  <anchor x="394" y="706" name="top"/>
  <outline>
    <contour>
      <point x="393" y="-38" type="line"/>
      <point x="395" y="-38" type="line"/>
      <point x="647" y="602" type="line"/>
      <point x="647" y="0" type="line"/>
      <point x="687" y="0" type="line"/>
      <point x="687" y="706" type="line"/>
      <point x="645" y="706" type="line"/>
      <point x="393" y="70" type="line"/>
      <point x="142" y="706" type="line"/>
      <point x="100" y="706" type="line"/>
      <point x="100" y="0" type="line"/>
      <point x="140" y="0" type="line"/>
      <point x="140" y="602" type="line"/>
    </contour>
  </outline>
</glyph>
<glyph name="N" format="2">
  <advance width="804"/>
  <unicode hex="004E"/>
  <note>
N
</note>
  <guideline x="416" y="392" angle="252.1952"/>
  <anchor x="290" y="0" name="bottom"/>
  <anchor x="537" y="706" name="top"/>
  <outline>
    <contour>
      <point x="30" y="0" type="line"/>
      <point x="72" y="0" type="line"/>
      <point x="284" y="634" type="line"/>
      <point x="496" y="0" type="line"/>
      <point x="546" y="0" type="line"/>
      <point x="774" y="706" type="line"/>
      <point x="735" y="706" type="line"/>
      <point x="524" y="49" type="line"/>
      <point x="285" y="757" type="line"/>
      <point x="283" y="757" type="line"/>
    </contour>
  </outline>
</glyph>
<glyph name="O" format="2">
  <advance width="827"/>
  <unicode hex="004F"/>
  <note>
O
</note>
  <anchor x="414" y="0" name="bottom"/>
  <anchor x="414" y="353" name="center"/>
  <anchor x="744" y="10" name="ogonek"/>
  <anchor x="414" y="706" name="top"/>
  <anchor x="20" y="706" name="topleft"/>
  <anchor x="807" y="706" name="topright"/>
  <outline>
    <contour>
      <point x="414" y="-14" type="curve" smooth="yes"/>
      <point x="622" y="-14"/>
      <point x="781" y="145"/>
      <point x="781" y="353" type="curve" smooth="yes"/>
      <point x="781" y="561"/>
      <point x="622" y="720"/>
      <point x="414" y="720" type="curve" smooth="yes"/>
      <point x="205" y="720"/>
      <point x="46" y="561"/>
      <point x="46" y="353" type="curve" smooth="yes"/>
      <point x="46" y="145"/>
      <point x="205" y="-14"/>
    </contour>
    <contour>
      <point x="414" y="26" type="curve" smooth="yes"/>
      <point x="227" y="26"/>
      <point x="86" y="167"/>
      <point x="86" y="353" type="curve" smooth="yes"/>
      <point x="86" y="539"/>
      <point x="227" y="680"/>
      <point x="414" y="680" type="curve" smooth="yes"/>
      <point x="600" y="680"/>
      <point x="741" y="539"/>
      <point x="741" y="353" type="curve" smooth="yes"/>
      <point x="741" y="167"/>
      <point x="600" y="26"/>
    </contour>
  </outline>
</glyph>
<glyph name="P" format="2">
  <advance width="376"/>
  <unicode hex="0050"/>
  <note>
P
</note>
  <anchor x="121" y="706" name="top"/>
  <outline>
    <contour>
      <point x="109" y="311" type="line"/>
      <point x="141" y="311" type="line" smooth="yes"/>
      <point x="247" y="313"/>
      <point x="336" y="399"/>
      <point x="336" y="508" type="curve" smooth="yes"/>
      <point x="336" y="617"/>
      <point x="247" y="705"/>
      <point x="141" y="705.997" type="curve" smooth="yes"/>
      <point x="129" y="706" type="line"/>
      <point x="129" y="667" type="line"/>
      <point x="140" y="667" type="line" smooth="yes"/>
      <point x="223" y="667"/>
      <point x="296" y="595"/>
      <point x="296" y="508" type="curve" smooth="yes"/>
      <point x="296" y="422"/>
      <point x="223" y="351"/>
      <point x="140" y="351" type="curve" smooth="yes"/>
      <point x="109" y="351" type="line"/>
    </contour>
    <contour>
      <point x="100" y="0" type="line"/>
      <point x="140" y="0" type="line"/>
      <point x="140" y="706" type="line"/>
      <point x="100" y="706" type="line"/>
    </contour>
  </outline>
</glyph>
<glyph name="Q" format="2">
  <advance width="837"/>
  <unicode hex="0051"/>
  <note>
Q
</note>
  <outline>
    <contour>
      <point x="734" y="-30" type="line"/>
      <point x="735" y="-29" type="line"/>
      <point x="735" y="20" type="line"/>
      <point x="397" y="369" type="line"/>
      <point x="369" y="338" type="line"/>
    </contour>
    <component base="O" identifier="6107FA40"/>
  </outline>
</glyph>
<glyph name="R" format="2">
  <advance width="391"/>
  <unicode hex="0052"/>
  <note>
R
</note>
  <anchor x="196" y="0" name="bottom"/>
  <anchor x="196" y="706" name="top"/>
  <outline>
    <contour>
      <point x="100" y="0" type="line"/>
      <point x="140" y="0" type="line"/>
      <point x="140" y="706" type="line"/>
      <point x="100" y="706" type="line"/>
    </contour>
    <contour>
      <point x="298" y="0" type="line"/>
      <point x="341" y="0" type="line"/>
      <point x="217" y="361" type="line"/>
      <point x="184" y="342" type="line"/>
    </contour>
    <contour>
      <point x="109" y="311" type="line"/>
      <point x="141" y="311" type="line" smooth="yes"/>
      <point x="247" y="313"/>
      <point x="336" y="399"/>
      <point x="336" y="508" type="curve" smooth="yes"/>
      <point x="336" y="617"/>
      <point x="247" y="705"/>
      <point x="141" y="705.997" type="curve" smooth="yes"/>
      <point x="129" y="706" type="line"/>
      <point x="129" y="667" type="line"/>
      <point x="140" y="667" type="line" smooth="yes"/>
      <point x="223" y="667"/>
      <point x="296" y="595"/>
      <point x="296" y="508" type="curve" smooth="yes"/>
      <point x="296" y="422"/>
      <point x="223" y="351"/>
      <point x="140" y="351" type="curve" smooth="yes"/>
      <point x="109" y="351" type="line"/>
    </contour>
  </outline>
</glyph>
<glyph name="S" format="2">
  <advance width="482"/>
  <unicode hex="0053"/>
  <note>
S
</note>
  <anchor x="241" y="0" name="bottom"/>
  <anchor x="241" y="706" name="top"/>
  <outline>
    <contour>
      <point x="241" y="-16" type="curve" smooth="yes"/>
      <point x="350" y="-16"/>
      <point x="436" y="69"/>
      <point x="436" y="178" type="curve" smooth="yes"/>
      <point x="436" y="288"/>
      <point x="350" y="374"/>
      <point x="241" y="374" type="curve" smooth="yes"/>
      <point x="154" y="374"/>
      <point x="86" y="441"/>
      <point x="86" y="528" type="curve" smooth="yes"/>
      <point x="86" y="613"/>
      <point x="154" y="681"/>
      <point x="241" y="681" type="curve" smooth="yes"/>
      <point x="327" y="681"/>
      <point x="394" y="613"/>
      <point x="394" y="528" type="curve" smooth="yes"/>
      <point x="394" y="502" type="line"/>
      <point x="435" y="502" type="line"/>
      <point x="435" y="528" type="line" smooth="yes"/>
      <point x="435" y="637"/>
      <point x="350" y="722"/>
      <point x="241" y="722" type="curve" smooth="yes"/>
      <point x="132" y="722"/>
      <point x="46" y="637"/>
      <point x="46" y="528" type="curve" smooth="yes"/>
      <point x="46" y="418"/>
      <point x="132" y="333"/>
      <point x="241" y="333" type="curve" smooth="yes"/>
      <point x="328" y="333"/>
      <point x="397" y="265"/>
      <point x="397" y="178" type="curve" smooth="yes"/>
      <point x="397" y="91"/>
      <point x="328" y="23"/>
      <point x="241" y="23" type="curve" smooth="yes"/>
      <point x="158" y="23"/>
      <point x="90" y="91"/>
      <point x="90" y="178" type="curve" smooth="yes"/>
      <point x="90" y="205" type="line"/>
      <point x="48" y="205" type="line"/>
      <point x="48" y="178" type="line" smooth="yes"/>
      <point x="48" y="64"/>
      <point x="135" y="-16"/>
    </contour>
  </outline>
</glyph>
<glyph name="T" format="2">
  <advance width="336"/>
  <unicode hex="0054"/>
  <note>
T
</note>
  <anchor x="168" y="0" name="bottom"/>
  <anchor x="168" y="353" name="center"/>
  <anchor x="168" y="706" name="top"/>
  <outline>
    <contour>
      <point x="148" y="0" type="line"/>
      <point x="188" y="0" type="line"/>
      <point x="188" y="706" type="line"/>
      <point x="148" y="706" type="line"/>
    </contour>
    <contour>
      <point x="10" y="666" type="line"/>
      <point x="326" y="666" type="line"/>
      <point x="326" y="706" type="line"/>
      <point x="10" y="706" type="line"/>
    </contour>
  </outline>
</glyph>
<glyph name="U" format="2">
  <advance width="525"/>
  <unicode hex="0055"/>
  <note>
U
</note>
  <anchor x="263" y="0" name="bottom"/>
  <anchor x="373" y="38" name="ogonek"/>
  <anchor x="267" y="706" name="top"/>
  <anchor x="525" y="706" name="topright"/>
  <outline>
    <contour>
      <point x="263" y="-10" type="curve" smooth="yes"/>
      <point x="360" y="-10"/>
      <point x="435" y="63"/>
      <point x="435" y="161" type="curve" smooth="yes"/>
      <point x="435" y="706" type="line"/>
      <point x="395" y="706" type="line"/>
      <point x="395" y="163" type="line" smooth="yes"/>
      <point x="395" y="88"/>
      <point x="339" y="30"/>
      <point x="263" y="30" type="curve" smooth="yes"/>
      <point x="188" y="30"/>
      <point x="130" y="88"/>
      <point x="130" y="163" type="curve" smooth="yes"/>
      <point x="130" y="706" type="line"/>
      <point x="90" y="706" type="line"/>
      <point x="90" y="161" type="line" smooth="yes"/>
      <point x="90" y="63"/>
      <point x="166" y="-10"/>
    </contour>
  </outline>
</glyph>
<glyph name="V" format="2">
  <advance width="567"/>
  <unicode hex="0056"/>
  <note>
V
</note>
  <guideline x="420" y="-61" angle="0"/>
  <outline>
    <contour>
      <point x="284" y="-61" type="line"/>
      <point x="537" y="706" type="line"/>
      <point x="495" y="706" type="line"/>
      <point x="283" y="59" type="line"/>
      <point x="72" y="706" type="line"/>
      <point x="30" y="706" type="line"/>
    </contour>
  </outline>
</glyph>
<glyph name="W" format="2">
  <advance width="894"/>
  <unicode hex="0057"/>
  <note>
W
</note>
  <guideline x="420" y="-61" angle="0"/>
  <anchor x="447" y="580" name="top"/>
  <outline>
    <contour>
      <point x="254" y="-41" type="line"/>
      <point x="256" y="-41" type="line"/>
      <point x="447" y="375" type="line"/>
      <point x="638" y="-41" type="line"/>
      <point x="640" y="-41" type="line"/>
      <point x="864" y="706" type="line"/>
      <point x="821" y="706" type="line"/>
      <point x="631" y="69" type="line"/>
      <point x="448" y="472" type="line"/>
      <point x="446" y="472" type="line"/>
      <point x="263" y="69" type="line"/>
      <point x="73" y="706" type="line"/>
      <point x="30" y="706" type="line"/>
    </contour>
  </outline>
</glyph>
<glyph name="X" format="2">
  <advance width="695"/>
  <unicode hex="0058"/>
  <note>
X
</note>
  <guideline x="10" y="660" angle="0"/>
  <outline>
    <contour>
      <point x="12" y="-19" type="line"/>
      <point x="685" y="673" type="line"/>
      <point x="685" y="724" type="line"/>
      <point x="683" y="725" type="line"/>
      <point x="10" y="33" type="line"/>
      <point x="10" y="-18" type="line"/>
    </contour>
    <contour>
      <point x="683" y="-19" type="line"/>
      <point x="685" y="-18" type="line"/>
      <point x="685" y="33" type="line"/>
      <point x="12" y="725" type="line"/>
      <point x="10" y="724" type="line"/>
      <point x="10" y="673" type="line"/>
    </contour>
  </outline>
</glyph>
<glyph name="Y" format="2">
  <advance width="407"/>
  <unicode hex="0059"/>
  <note>
Y
</note>
  <anchor x="203" y="706" name="top"/>
  <outline>
    <contour>
      <point x="183" y="0" type="line"/>
      <point x="223" y="0" type="line"/>
      <point x="223" y="385" type="line"/>
      <point x="387" y="706" type="line"/>
      <point x="340" y="706" type="line"/>
      <point x="203" y="433" type="line"/>
      <point x="65" y="706" type="line"/>
      <point x="20" y="706" type="line"/>
      <point x="183" y="385" type="line"/>
    </contour>
  </outline>
</glyph>
<glyph name="Z" format="2">
  <advance width="380"/>
  <unicode hex="005A"/>
  <note>
Z
</note>
  <anchor x="190" y="0" name="bottom"/>
  <anchor x="190" y="353" name="center"/>
  <anchor x="190" y="706" name="top"/>
  <outline>
    <contour>
      <point x="40" y="0" type="line"/>
      <point x="340" y="0" type="line"/>
      <point x="340" y="40" type="line"/>
      <point x="94" y="40" type="line"/>
      <point x="340" y="706" type="line"/>
      <point x="40" y="706" type="line"/>
      <point x="40" y="667" type="line"/>
      <point x="283" y="667" type="line"/>
      <point x="40" y="3" type="line"/>
    </contour>
  </outline>
</glyph>
<glyph name="bracketleft" format="2">
  <advance width="369"/>
  <unicode hex="005B"/>
  <note>
bracketleft
</note>
  <outline>
    <contour>
      <point x="100" y="-40" type="line"/>
      <point x="299" y="-40" type="line"/>
      <point x="299" y="0" type="line"/>
      <point x="140" y="0" type="line"/>
      <point x="140" y="706" type="line"/>
      <point x="299" y="706" type="line"/>
      <point x="299" y="746" type="line"/>
      <point x="100" y="746" type="line"/>
    </contour>
  </outline>
</glyph>
<glyph name="asciicircum" format="2">
  <advance width="377"/>
  <unicode hex="005E"/>
  <outline>
    <contour>
      <point x="30" y="386" type="line"/>
      <point x="75" y="386" type="line"/>
      <point x="188" y="574" type="line"/>
      <point x="304" y="386" type="line"/>
      <point x="347" y="386" type="line"/>
      <point x="191" y="636" type="line"/>
      <point x="185" y="636" type="line"/>
    </contour>
  </outline>
</glyph>
<glyph name="underscore" format="2">
  <advance width="677"/>
  <unicode hex="005F"/>
  <outline>
    <contour>
      <point x="80" y="0" type="line"/>
      <point x="597" y="0" type="line"/>
      <point x="597" y="40" type="line"/>
      <point x="80" y="40" type="line"/>
    </contour>
  </outline>
</glyph>
<glyph name="a" format="2">
  <advance width="669"/>
  <unicode hex="0061"/>
  <anchor x="322" y="0" name="bottom"/>
  <anchor x="579" y="0" name="ogonek"/>
  <anchor x="328" y="513" name="top"/>
  <outline>
    <contour>
      <point x="315" y="-8" type="curve" smooth="yes"/>
      <point x="461" y="-8"/>
      <point x="579" y="110"/>
      <point x="579" y="257" type="curve" smooth="yes"/>
      <point x="579" y="403"/>
      <point x="461" y="521"/>
      <point x="315" y="521" type="curve" smooth="yes"/>
      <point x="169" y="521"/>
      <point x="50" y="403"/>
      <point x="50" y="257" type="curve" smooth="yes"/>
      <point x="50" y="110"/>
      <point x="169" y="-8"/>
    </contour>
    <contour>
      <point x="315" y="32" type="curve" smooth="yes"/>
      <point x="191" y="32"/>
      <point x="90" y="132"/>
      <point x="90" y="257" type="curve" smooth="yes"/>
      <point x="90" y="381"/>
      <point x="191" y="481"/>
      <point x="315" y="481" type="curve" smooth="yes"/>
      <point x="439" y="481"/>
      <point x="539" y="381"/>
      <point x="539" y="257" type="curve" smooth="yes"/>
      <point x="539" y="132"/>
      <point x="439" y="32"/>
    </contour>
    <contour>
      <point x="539" y="0" type="line"/>
      <point x="579" y="0" type="line"/>
      <point x="579" y="513" type="line"/>
      <point x="539" y="513" type="line"/>
    </contour>
  </outline>
</glyph>
<glyph name="b" format="2">
  <advance width="669"/>
  <unicode hex="0062"/>
  <anchor x="347" y="513" name="top"/>
  <outline>
    <contour>
      <point x="355" y="-8" type="curve" smooth="yes"/>
      <point x="501" y="-8"/>
      <point x="619" y="110"/>
      <point x="619" y="257" type="curve" smooth="yes"/>
      <point x="619" y="403"/>
      <point x="501" y="521"/>
      <point x="355" y="521" type="curve" smooth="yes"/>
      <point x="209" y="521"/>
      <point x="90" y="403"/>
      <point x="90" y="257" type="curve" smooth="yes"/>
      <point x="90" y="110"/>
      <point x="209" y="-8"/>
    </contour>
    <contour>
      <point x="90" y="0" type="line"/>
      <point x="130" y="0" type="line"/>
      <point x="130" y="112" type="line"/>
      <point x="130" y="151" type="line"/>
      <point x="130" y="706" type="line"/>
      <point x="90" y="706" type="line"/>
    </contour>
    <contour>
      <point x="355" y="32" type="curve" smooth="yes"/>
      <point x="231" y="32"/>
      <point x="130" y="132"/>
      <point x="130" y="257" type="curve" smooth="yes"/>
      <point x="130" y="381"/>
      <point x="231" y="481"/>
      <point x="355" y="481" type="curve" smooth="yes"/>
      <point x="479" y="481"/>
      <point x="579" y="381"/>
      <point x="579" y="257" type="curve" smooth="yes"/>
      <point x="579" y="132"/>
      <point x="479" y="32"/>
    </contour>
  </outline>
</glyph>
<glyph name="c" format="2">
  <advance width="623"/>
  <unicode hex="0063"/>
  <anchor x="313" y="0" name="bottom"/>
  <anchor x="313" y="513" name="top"/>
  <outline>
    <contour>
      <point x="315" y="-7" type="curve" smooth="yes"/>
      <point x="441" y="-7"/>
      <point x="546" y="81"/>
      <point x="573" y="199" type="curve"/>
      <point x="531" y="199" type="line"/>
      <point x="506" y="103"/>
      <point x="419" y="33"/>
      <point x="315" y="33" type="curve" smooth="yes"/>
      <point x="191" y="33"/>
      <point x="90" y="133"/>
      <point x="90" y="257" type="curve" smooth="yes"/>
      <point x="90" y="381"/>
      <point x="191" y="481"/>
      <point x="315" y="481" type="curve" smooth="yes"/>
      <point x="419" y="481"/>
      <point x="506" y="411"/>
      <point x="531" y="315" type="curve"/>
      <point x="573" y="315" type="line"/>
      <point x="546" y="433"/>
      <point x="441" y="521"/>
      <point x="315" y="521" type="curve" smooth="yes"/>
      <point x="169" y="521"/>
      <point x="50" y="403"/>
      <point x="50" y="257" type="curve" smooth="yes"/>
      <point x="50" y="111"/>
      <point x="169" y="-7"/>
    </contour>
  </outline>
</glyph>
<glyph name="e" format="2">
  <advance width="629"/>
  <unicode hex="0065"/>
  <anchor x="315" y="0" name="bottom"/>
  <anchor x="411" y="10" name="ogonek"/>
  <anchor x="315" y="513" name="top"/>
  <outline>
    <contour>
      <point x="315" y="-8" type="curve" smooth="yes"/>
      <point x="431" y="-8"/>
      <point x="528" y="65"/>
      <point x="564" y="169" type="curve"/>
      <point x="518" y="169" type="line"/>
      <point x="483" y="86"/>
      <point x="406" y="32"/>
      <point x="315" y="32" type="curve" smooth="yes"/>
      <point x="191" y="32"/>
      <point x="90" y="132"/>
      <point x="90" y="257" type="curve" smooth="yes"/>
      <point x="90" y="381"/>
      <point x="191" y="481"/>
      <point x="315" y="481" type="curve" smooth="yes"/>
      <point x="443" y="481"/>
      <point x="544" y="376"/>
      <point x="538" y="247" type="curve"/>
      <point x="569" y="279" type="line"/>
      <point x="62" y="279" type="line"/>
      <point x="62" y="239" type="line"/>
      <point x="579" y="239" type="line"/>
      <point x="579" y="433"/>
      <point x="447" y="521"/>
      <point x="315" y="521" type="curve" smooth="yes"/>
      <point x="169" y="521"/>
      <point x="50" y="403"/>
      <point x="50" y="257" type="curve" smooth="yes"/>
      <point x="50" y="110"/>
      <point x="169" y="-8"/>
    </contour>
  </outline>
</glyph>
<glyph name="f" format="2">
  <advance width="381"/>
  <unicode hex="0066"/>
  <outline>
    <contour>
      <point x="158" y="0" type="line"/>
      <point x="198" y="0" type="line"/>
      <point x="198" y="523" type="line" smooth="yes"/>
      <point x="198" y="602"/>
      <point x="253" y="667"/>
      <point x="332" y="667" type="curve" smooth="yes"/>
      <point x="341" y="667" type="line"/>
      <point x="341" y="706" type="line"/>
      <point x="331" y="706" type="line" smooth="yes"/>
      <point x="231" y="706"/>
      <point x="159" y="624"/>
      <point x="159" y="523" type="curve" smooth="yes"/>
    </contour>
    <contour>
      <point x="40" y="473" type="line"/>
      <point x="341" y="473" type="line"/>
      <point x="341" y="513" type="line"/>
      <point x="40" y="513" type="line"/>
    </contour>
  </outline>
</glyph>
<glyph name="g" format="2">
  <advance width="620"/>
  <unicode hex="0067"/>
  <anchor x="301" y="-186" name="bottom"/>
  <anchor x="301" y="513" name="top"/>
  <outline>
    <contour>
      <point x="299" y="107" type="curve" smooth="yes"/>
      <point x="398" y="107"/>
      <point x="502" y="195"/>
      <point x="502" y="310" type="curve" smooth="yes"/>
      <point x="502" y="424"/>
      <point x="414" y="513"/>
      <point x="299" y="513" type="curve" smooth="yes"/>
      <point x="184" y="513"/>
      <point x="96" y="424"/>
      <point x="96" y="310" type="curve" smooth="yes"/>
      <point x="96" y="195"/>
      <point x="184" y="107"/>
    </contour>
    <contour>
      <point x="301" y="-186" type="curve" smooth="yes"/>
      <point x="438" y="-186"/>
      <point x="542" y="-81"/>
      <point x="542" y="55" type="curve"/>
      <point x="502" y="55" type="line"/>
      <point x="502" y="-62"/>
      <point x="420" y="-145"/>
      <point x="301" y="-145" type="curve" smooth="yes"/>
      <point x="183" y="-145"/>
      <point x="101" y="-62"/>
      <point x="101" y="55" type="curve"/>
      <point x="60" y="55" type="line"/>
      <point x="60" y="-81"/>
      <point x="165" y="-186"/>
    </contour>
    <contour>
      <point x="541" y="34" type="line"/>
      <point x="541" y="46"/>
      <point x="543" y="62"/>
      <point x="543" y="74" type="curve"/>
      <point x="268" y="149" type="line"/>
      <point x="247" y="113" type="line"/>
    </contour>
    <contour>
      <point x="299" y="147" type="curve" smooth="yes"/>
      <point x="207" y="147"/>
      <point x="136" y="218"/>
      <point x="136" y="310" type="curve" smooth="yes"/>
      <point x="136" y="402"/>
      <point x="207" y="473"/>
      <point x="299" y="473" type="curve" smooth="yes"/>
      <point x="391" y="473"/>
      <point x="462" y="402"/>
      <point x="462" y="310" type="curve" smooth="yes"/>
      <point x="462" y="218"/>
      <point x="379" y="147"/>
    </contour>
    <contour>
      <point x="299" y="479" type="line"/>
      <point x="550" y="479" type="line"/>
      <point x="550" y="515" type="line"/>
      <point x="299" y="513" type="line"/>
    </contour>
  </outline>
</glyph>
<glyph name="h" format="2">
  <advance width="525"/>
  <unicode hex="0068"/>
  <anchor x="263" y="0" name="bottom"/>
  <anchor x="263" y="257" name="center"/>
  <anchor x="110" y="706" name="top"/>
  <outline>
    <contour>
      <point x="90" y="-1" type="line"/>
      <point x="130" y="-1" type="line"/>
      <point x="130" y="350" type="line" smooth="yes"/>
      <point x="130" y="425"/>
      <point x="188" y="483"/>
      <point x="263" y="483" type="curve" smooth="yes"/>
      <point x="339" y="483"/>
      <point x="395" y="425"/>
      <point x="395" y="350" type="curve" smooth="yes"/>
      <point x="395" y="-1" type="line"/>
      <point x="435" y="-1" type="line"/>
      <point x="435" y="352" type="line" smooth="yes"/>
      <point x="435" y="450"/>
      <point x="360" y="523"/>
      <point x="263" y="523" type="curve" smooth="yes"/>
      <point x="166" y="523"/>
      <point x="90" y="450"/>
      <point x="90" y="352" type="curve" smooth="yes"/>
    </contour>
    <contour>
      <point x="90" y="0" type="line"/>
      <point x="130" y="0" type="line"/>
      <point x="130" y="706" type="line"/>
      <point x="90" y="706" type="line"/>
    </contour>
  </outline>
</glyph>
<glyph name="k" format="2">
  <advance width="548"/>
  <unicode hex="006B"/>
  <note>
k
</note>
  <guideline x="498" y="-10" angle="0"/>
  <anchor x="274" y="0" name="bottom"/>
  <anchor x="110" y="706" name="top"/>
  <outline>
    <contour>
      <point x="495" y="-14" type="line"/>
      <point x="498" y="-12" type="line"/>
      <point x="498" y="33" type="line"/>
      <point x="130" y="256" type="line"/>
      <point x="498" y="478" type="line"/>
      <point x="498" y="523" type="line"/>
      <point x="495" y="525" type="line"/>
      <point x="106" y="292" type="line"/>
      <point x="106" y="219" type="line"/>
    </contour>
    <contour>
      <point x="90" y="0" type="line"/>
      <point x="130" y="0" type="line"/>
      <point x="130" y="706" type="line"/>
      <point x="90" y="706" type="line"/>
    </contour>
  </outline>
</glyph>
<glyph name="l" format="2">
  <advance width="220"/>
  <unicode hex="006C"/>
  <anchor x="110" y="0" name="bottom"/>
  <anchor x="110" y="400" name="center"/>
  <anchor x="110" y="706" name="top"/>
  <anchor x="160" y="706" name="topright"/>
  <outline>
    <contour>
      <point x="90" y="0" type="line"/>
      <point x="130" y="0" type="line"/>
      <point x="130" y="706" type="line"/>
      <point x="90" y="706" type="line"/>
    </contour>
  </outline>
</glyph>
<glyph name="m" format="2">
  <advance width="822"/>
  <unicode hex="006D"/>
  <outline>
    <contour>
      <point x="410" y="-30" type="line"/>
      <point x="412" y="-30" type="line"/>
      <point x="630" y="451" type="line"/>
      <point x="712" y="0" type="line"/>
      <point x="754" y="0" type="line"/>
      <point x="662" y="513" type="line"/>
      <point x="611" y="513" type="line"/>
      <point x="411" y="65" type="line"/>
      <point x="211" y="513" type="line"/>
      <point x="160" y="513" type="line"/>
      <point x="68" y="0" type="line"/>
      <point x="110" y="0" type="line"/>
      <point x="192" y="451" type="line"/>
    </contour>
  </outline>
</glyph>
<glyph name="n" format="2">
  <advance width="613"/>
  <unicode hex="006E"/>
  <note>
n
</note>
  <anchor x="312" y="0" name="bottom"/>
  <anchor x="312" y="513" name="top"/>
  <outline>
    <contour>
      <point x="90" y="0" type="line"/>
      <point x="128" y="0" type="line"/>
      <point x="128" y="425" type="line"/>
      <point x="483" y="0" type="line"/>
      <point x="523" y="0" type="line"/>
      <point x="523" y="513" type="line"/>
      <point x="485" y="513" type="line"/>
      <point x="485" y="61" type="line"/>
      <point x="92" y="533" type="line"/>
      <point x="90" y="533" type="line"/>
    </contour>
  </outline>
</glyph>
<glyph name="o" format="2">
  <advance width="629"/>
  <unicode hex="006F"/>
  <anchor x="315" y="0" name="bottom"/>
  <anchor x="315" y="257" name="center"/>
  <anchor x="566" y="10" name="ogonek"/>
  <anchor x="315" y="513" name="top"/>
  <anchor x="609" y="513" name="topright"/>
  <outline>
    <contour>
      <point x="315" y="-8" type="curve" smooth="yes"/>
      <point x="461" y="-8"/>
      <point x="579" y="110"/>
      <point x="579" y="257" type="curve" smooth="yes"/>
      <point x="579" y="403"/>
      <point x="461" y="521"/>
      <point x="315" y="521" type="curve" smooth="yes"/>
      <point x="169" y="521"/>
      <point x="50" y="403"/>
      <point x="50" y="257" type="curve" smooth="yes"/>
      <point x="50" y="110"/>
      <point x="169" y="-8"/>
    </contour>
    <contour>
      <point x="315" y="32" type="curve" smooth="yes"/>
      <point x="191" y="32"/>
      <point x="90" y="132"/>
      <point x="90" y="257" type="curve" smooth="yes"/>
      <point x="90" y="381"/>
      <point x="191" y="481"/>
      <point x="315" y="481" type="curve" smooth="yes"/>
      <point x="439" y="481"/>
      <point x="539" y="381"/>
      <point x="539" y="257" type="curve" smooth="yes"/>
      <point x="539" y="132"/>
      <point x="439" y="32"/>
    </contour>
  </outline>
</glyph>
<glyph name="p" format="2">
  <advance width="669"/>
  <unicode hex="0070"/>
  <anchor x="348" y="1" name="bottom"/>
  <outline>
    <contour>
      <point x="355" y="-8" type="curve" smooth="yes"/>
      <point x="501" y="-8"/>
      <point x="619" y="110"/>
      <point x="619" y="257" type="curve" smooth="yes"/>
      <point x="619" y="403"/>
      <point x="501" y="521"/>
      <point x="355" y="521" type="curve" smooth="yes"/>
      <point x="209" y="521"/>
      <point x="90" y="403"/>
      <point x="90" y="257" type="curve" smooth="yes"/>
      <point x="90" y="110"/>
      <point x="209" y="-8"/>
    </contour>
    <contour>
      <point x="90" y="-200" type="line"/>
      <point x="130" y="-200" type="line"/>
      <point x="130" y="362" type="line"/>
      <point x="130" y="401" type="line"/>
      <point x="130" y="513" type="line"/>
      <point x="90" y="513" type="line"/>
    </contour>
    <contour>
      <point x="355" y="32" type="curve" smooth="yes"/>
      <point x="231" y="32"/>
      <point x="130" y="132"/>
      <point x="130" y="257" type="curve" smooth="yes"/>
      <point x="130" y="381"/>
      <point x="231" y="481"/>
      <point x="355" y="481" type="curve" smooth="yes"/>
      <point x="479" y="481"/>
      <point x="579" y="381"/>
      <point x="579" y="257" type="curve" smooth="yes"/>
      <point x="579" y="132"/>
      <point x="479" y="32"/>
    </contour>
  </outline>
</glyph>
<glyph name="r" format="2">
  <advance width="359"/>
  <unicode hex="0072"/>
  <anchor x="110" y="0" name="bottom"/>
  <anchor x="214" y="513" name="top"/>
  <outline>
    <contour>
      <point x="90" y="0" type="line"/>
      <point x="130" y="0" type="line"/>
      <point x="130" y="350" type="line"/>
      <point x="349" y="478" type="line"/>
      <point x="349" y="525" type="line"/>
      <point x="130" y="395" type="line"/>
      <point x="130" y="513" type="line"/>
      <point x="90" y="513" type="line"/>
    </contour>
  </outline>
</glyph>
<glyph name="s" format="2">
  <advance width="415"/>
  <unicode hex="0073"/>
  <anchor x="208" y="0" name="bottom"/>
  <anchor x="208" y="513" name="top"/>
  <outline>
    <contour>
      <point x="208" y="-11" type="curve" smooth="yes"/>
      <point x="290" y="-11"/>
      <point x="353" y="47"/>
      <point x="353" y="131" type="curve" smooth="yes"/>
      <point x="353" y="217"/>
      <point x="290" y="278"/>
      <point x="208" y="278" type="curve" smooth="yes"/>
      <point x="148" y="278"/>
      <point x="102" y="322"/>
      <point x="102" y="382" type="curve" smooth="yes"/>
      <point x="102" y="440"/>
      <point x="148" y="484"/>
      <point x="208" y="484" type="curve" smooth="yes"/>
      <point x="268" y="484"/>
      <point x="314" y="440"/>
      <point x="314" y="382" type="curve" smooth="yes"/>
      <point x="314" y="376" type="line"/>
      <point x="355" y="376" type="line"/>
      <point x="355" y="382" type="line" smooth="yes"/>
      <point x="355" y="464"/>
      <point x="291" y="524"/>
      <point x="208" y="524" type="curve" smooth="yes"/>
      <point x="125" y="524"/>
      <point x="62" y="464"/>
      <point x="62" y="382" type="curve" smooth="yes"/>
      <point x="62" y="297"/>
      <point x="125" y="234"/>
      <point x="208" y="234" type="curve" smooth="yes"/>
      <point x="267" y="234"/>
      <point x="312" y="191"/>
      <point x="312" y="131" type="curve" smooth="yes"/>
      <point x="312" y="73"/>
      <point x="267" y="29"/>
      <point x="208" y="29" type="curve" smooth="yes"/>
      <point x="147" y="29"/>
      <point x="101" y="73"/>
      <point x="101" y="131" type="curve" smooth="yes"/>
      <point x="101" y="140" type="line"/>
      <point x="60" y="140" type="line"/>
      <point x="60" y="131" type="line" smooth="yes"/>
      <point x="60" y="47"/>
      <point x="123" y="-11"/>
    </contour>
  </outline>
</glyph>
<glyph name="t" format="2">
  <advance width="367"/>
  <unicode hex="0074"/>
  <anchor x="175" y="0" name="bottom"/>
  <anchor x="175" y="257" name="center"/>
  <anchor x="175" y="608" name="top"/>
  <anchor x="225" y="750" name="topright"/>
  <outline>
    <contour>
      <point x="155" y="-1" type="line"/>
      <point x="195" y="0" type="line"/>
      <point x="195" y="473" type="line"/>
      <point x="337" y="473" type="line"/>
      <point x="337" y="513" type="line"/>
      <point x="195" y="513" type="line"/>
      <point x="195" y="619" type="line"/>
      <point x="194" y="620" type="line"/>
      <point x="155" y="583" type="line"/>
      <point x="155" y="513" type="line"/>
      <point x="30" y="513" type="line"/>
      <point x="30" y="473" type="line"/>
      <point x="155" y="473" type="line"/>
    </contour>
  </outline>
</glyph>
<glyph name="u" format="2">
  <advance width="525"/>
  <unicode hex="0075"/>
  <anchor x="263" y="0" name="bottom"/>
  <anchor x="375" y="40" name="ogonek"/>
  <anchor x="263" y="513" name="top"/>
  <anchor x="505" y="513" name="topright"/>
  <outline>
    <contour>
      <point x="263" y="-10" type="curve" smooth="yes"/>
      <point x="360" y="-10"/>
      <point x="435" y="63"/>
      <point x="435" y="161" type="curve" smooth="yes"/>
      <point x="435" y="513" type="line"/>
      <point x="395" y="513" type="line"/>
      <point x="395" y="163" type="line" smooth="yes"/>
      <point x="395" y="88"/>
      <point x="339" y="30"/>
      <point x="263" y="30" type="curve" smooth="yes"/>
      <point x="188" y="30"/>
      <point x="130" y="88"/>
      <point x="130" y="163" type="curve" smooth="yes"/>
      <point x="130" y="513" type="line"/>
      <point x="90" y="513" type="line"/>
      <point x="90" y="161" type="line" smooth="yes"/>
      <point x="90" y="63"/>
      <point x="166" y="-10"/>
    </contour>
  </outline>
</glyph>
<glyph name="v" format="2">
  <advance width="492"/>
  <unicode hex="0076"/>
  <note>
v
</note>
  <outline>
    <contour>
      <point x="244" y="-30" type="line"/>
      <point x="248" y="-30" type="line"/>
      <point x="452" y="513" type="line"/>
      <point x="409" y="513" type="line"/>
      <point x="246" y="72" type="line"/>
      <point x="81" y="513" type="line"/>
      <point x="40" y="513" type="line"/>
    </contour>
  </outline>
</glyph>
<glyph name="w" format="2">
  <advance width="742"/>
  <unicode hex="0077"/>
  <note>
w
</note>
  <anchor x="371" y="0" name="bottom"/>
  <anchor x="371" y="454" name="top"/>
  <outline>
    <contour>
      <point x="211" y="-30" type="line"/>
      <point x="212" y="-30" type="line"/>
      <point x="371" y="329" type="line"/>
      <point x="530" y="-30" type="line"/>
      <point x="531" y="-30" type="line"/>
      <point x="702" y="513" type="line"/>
      <point x="659" y="513" type="line"/>
      <point x="525" y="72" type="line"/>
      <point x="372" y="428" type="line"/>
      <point x="370" y="428" type="line"/>
      <point x="218" y="72" type="line"/>
      <point x="82" y="513" type="line"/>
      <point x="40" y="513" type="line"/>
    </contour>
  </outline>
</glyph>
<glyph name="x" format="2">
  <advance width="575"/>
  <unicode hex="0078"/>
  <note>
x
</note>
  <outline>
    <contour>
      <point x="523" y="-14" type="line"/>
      <point x="51" y="474" type="line"/>
      <point x="51" y="526" type="line"/>
      <point x="53" y="527" type="line"/>
      <point x="525" y="39" type="line"/>
      <point x="525" y="-13" type="line"/>
    </contour>
    <contour>
      <point x="53" y="-14" type="line"/>
      <point x="51" y="-13" type="line"/>
      <point x="51" y="39" type="line"/>
      <point x="523" y="527" type="line"/>
      <point x="525" y="526" type="line"/>
      <point x="525" y="474" type="line"/>
    </contour>
  </outline>
</glyph>
<glyph name="y" format="2">
  <advance width="492"/>
  <unicode hex="0079"/>
  <anchor x="252" y="513" name="top"/>
  <outline>
    <contour>
      <point x="152" y="-180" type="line"/>
      <point x="192" y="-180" type="line"/>
      <point x="452" y="513" type="line"/>
      <point x="409" y="513" type="line"/>
      <point x="246" y="72" type="line"/>
      <point x="81" y="513" type="line"/>
      <point x="40" y="513" type="line"/>
      <point x="226" y="18" type="line"/>
    </contour>
  </outline>
</glyph>
<glyph name="z" format="2">
  <advance width="444"/>
  <unicode hex="007A"/>
  <anchor x="222" y="0" name="bottom"/>
  <anchor x="222" y="257" name="center"/>
  <anchor x="222" y="513" name="top"/>
  <outline>
    <contour>
      <point x="60" y="0" type="line"/>
      <point x="384" y="0" type="line"/>
      <point x="384" y="38" type="line"/>
      <point x="125" y="38" type="line"/>
      <point x="381" y="513" type="line"/>
      <point x="60" y="513" type="line"/>
      <point x="60" y="475" type="line"/>
      <point x="316" y="475" type="line"/>
    </contour>
  </outline>
</glyph>
<glyph name="braceleft" format="2">
  <advance width="263"/>
  <unicode hex="007B"/>
  <outline>
    <contour>
      <point x="203" y="-20" type="curve"/>
      <point x="203" y="20" type="line"/>
      <point x="161" y="20"/>
      <point x="116" y="32"/>
      <point x="116" y="97" type="curve" smooth="yes"/>
      <point x="116" y="190"/>
      <point x="162" y="273"/>
      <point x="157" y="314" type="curve" smooth="yes"/>
      <point x="155" y="332"/>
      <point x="149" y="347"/>
      <point x="125" y="357" type="curve"/>
      <point x="149" y="368"/>
      <point x="155" y="382"/>
      <point x="157" y="400" type="curve" smooth="yes"/>
      <point x="162" y="441"/>
      <point x="116" y="524"/>
      <point x="116" y="618" type="curve" smooth="yes"/>
      <point x="116" y="683"/>
      <point x="161" y="694"/>
      <point x="203" y="694" type="curve"/>
      <point x="203" y="734" type="line"/>
      <point x="151" y="734"/>
      <point x="76" y="715"/>
      <point x="76" y="618" type="curve" smooth="yes"/>
      <point x="76" y="521"/>
      <point x="120" y="428"/>
      <point x="117" y="404" type="curve" smooth="yes"/>
      <point x="115" y="387"/>
      <point x="104" y="377"/>
      <point x="30" y="377" type="curve"/>
      <point x="30" y="337" type="line"/>
      <point x="105" y="336"/>
      <point x="115" y="329"/>
      <point x="117" y="310" type="curve" smooth="yes"/>
      <point x="120" y="286"/>
      <point x="76" y="192"/>
      <point x="76" y="97" type="curve" smooth="yes"/>
      <point x="76" y="0"/>
      <point x="151" y="-20"/>
    </contour>
  </outline>
</glyph>
<glyph name="sterling" format="2">
  <advance width="527"/>
  <unicode hex="00A3"/>
  <outline>
    <contour>
      <point x="50" y="287" type="line"/>
      <point x="375" y="287" type="line"/>
      <point x="375" y="327" type="line"/>
      <point x="50" y="327" type="line"/>
    </contour>
    <component base="three" xScale="-1" yScale="-1" xOffset="527" yOffset="706"/>
  </outline>
</glyph>
<glyph name="yen" format="2">
  <advance width="407"/>
  <unicode hex="00A5"/>
  <outline>
    <contour>
      <point x="41" y="150" type="line"/>
      <point x="366" y="150" type="line"/>
      <point x="366" y="190" type="line"/>
      <point x="41" y="190" type="line"/>
    </contour>
    <contour>
      <point x="41" y="250" type="line"/>
      <point x="366" y="250" type="line"/>
      <point x="366" y="289" type="line"/>
      <point x="41" y="289" type="line"/>
    </contour>
    <component base="Y" identifier="BD5EF73E"/>
  </outline>
</glyph>
<glyph name="brokenbar" format="2">
  <advance width="260"/>
  <unicode hex="00A6"/>
  <outline>
    <contour>
      <point x="110" y="430" type="line"/>
      <point x="150" y="430" type="line"/>
      <point x="150" y="880" type="line"/>
      <point x="110" y="880" type="line"/>
    </contour>
    <contour>
      <point x="110" y="-220" type="line"/>
      <point x="150" y="-220" type="line"/>
      <point x="150" y="230" type="line"/>
      <point x="110" y="230" type="line"/>
    </contour>
  </outline>
</glyph>
<glyph name="guillemotleft" format="2">
  <advance width="413"/>
  <unicode hex="00AB"/>
  <outline>
    <contour>
      <point x="303" y="119" type="line"/>
      <point x="353" y="119" type="line"/>
      <point x="284" y="313" type="line"/>
      <point x="353" y="507" type="line"/>
      <point x="303" y="507" type="line"/>
      <point x="230" y="313" type="line"/>
    </contour>
    <contour>
      <point x="123" y="119" type="line"/>
      <point x="173" y="119" type="line"/>
      <point x="104" y="313" type="line"/>
      <point x="173" y="507" type="line"/>
      <point x="123" y="507" type="line"/>
      <point x="50" y="313" type="line"/>
    </contour>
  </outline>
</glyph>
<glyph name="degree" format="2">
  <advance width="300"/>
  <unicode hex="00B0"/>
  <note>
degree
</note>
  <outline>
    <contour>
      <point x="151" y="516" type="curve" smooth="yes"/>
      <point x="204" y="516"/>
      <point x="245" y="557"/>
      <point x="245" y="612" type="curve" smooth="yes"/>
      <point x="245" y="665"/>
      <point x="204" y="706"/>
      <point x="151" y="706" type="curve" smooth="yes"/>
      <point x="97" y="706"/>
      <point x="55" y="665"/>
      <point x="55" y="612" type="curve" smooth="yes"/>
      <point x="55" y="557"/>
      <point x="97" y="516"/>
    </contour>
    <contour>
      <point x="151" y="556" type="curve" smooth="yes"/>
      <point x="119" y="556"/>
      <point x="95" y="580"/>
      <point x="95" y="612" type="curve" smooth="yes"/>
      <point x="95" y="641"/>
      <point x="119" y="666"/>
      <point x="151" y="666" type="curve" smooth="yes"/>
      <point x="182" y="666"/>
      <point x="205" y="641"/>
      <point x="205" y="612" type="curve" smooth="yes"/>
      <point x="205" y="580"/>
      <point x="182" y="556"/>
    </contour>
  </outline>
</glyph>
<glyph name="AE" format="2">
  <advance width="696"/>
  <unicode hex="00C6"/>
  <note>
AE
</note>
  <outline>
    <contour>
      <point x="30" y="0" type="line"/>
      <point x="72" y="0" type="line"/>
      <point x="416" y="702" type="line"/>
      <point x="416" y="706" type="line"/>
      <point x="375" y="706" type="line"/>
    </contour>
    <contour>
      <point x="171" y="255" type="line"/>
      <point x="409" y="255" type="line"/>
      <point x="409" y="295" type="line"/>
      <point x="183" y="295" type="line"/>
    </contour>
    <component base="E" xOffset="286" identifier="2D1E812B"/>
  </outline>
</glyph>
<glyph name="Eth" format="2">
  <advance width="551"/>
  <unicode hex="00D0"/>
  <outline>
    <contour>
      <point x="50" y="334" type="line"/>
      <point x="261" y="334" type="line"/>
      <point x="261" y="374" type="line"/>
      <point x="50" y="374" type="line"/>
    </contour>
    <component base="D" xOffset="11" identifier="14F48483"/>
  </outline>
</glyph>
<glyph name="Oslash" format="2">
  <advance width="827"/>
  <unicode hex="00D8"/>
  <anchor x="414" y="706" name="top"/>
  <outline>
    <contour>
      <point x="113" y="18" type="line"/>
      <point x="743" y="660" type="line"/>
      <point x="716" y="689" type="line"/>
      <point x="85" y="46" type="line"/>
    </contour>
    <component base="O"/>
  </outline>
</glyph>
<glyph name="Thorn" format="2">
  <advance width="426"/>
  <unicode hex="00DE"/>
  <outline>
    <contour>
      <point x="143" y="97" type="line"/>
      <point x="280" y="98"/>
      <point x="386" y="206"/>
      <point x="386" y="344" type="curve" smooth="yes"/>
      <point x="386" y="483"/>
      <point x="280" y="591"/>
      <point x="143" y="591" type="curve"/>
      <point x="143" y="547" type="line"/>
      <point x="261" y="542"/>
      <point x="342" y="459"/>
      <point x="342" y="344" type="curve" smooth="yes"/>
      <point x="342" y="227"/>
      <point x="261" y="144"/>
      <point x="143" y="141" type="curve"/>
    </contour>
    <contour>
      <point x="100" y="0" type="line"/>
      <point x="143" y="0" type="line"/>
      <point x="143" y="706" type="line"/>
      <point x="100" y="706" type="line"/>
    </contour>
  </outline>
</glyph>
<glyph name="germandbls" format="2">
  <advance width="518"/>
  <unicode hex="00DF"/>
  <outline>
    <contour>
      <point x="210" y="-200" type="line"/>
      <point x="240" y="-200" type="line" smooth="yes"/>
      <point x="372" y="-200"/>
      <point x="468" y="-106"/>
      <point x="468" y="17" type="curve" smooth="yes"/>
      <point x="468" y="129"/>
      <point x="388" y="229"/>
      <point x="266" y="228" type="curve"/>
      <point x="290" y="206" type="line"/>
      <point x="433" y="513" type="line"/>
      <point x="127" y="513" type="line"/>
      <point x="127" y="473" type="line"/>
      <point x="370" y="473" type="line"/>
      <point x="237" y="193" type="line"/>
      <point x="240" y="193" type="line" smooth="yes"/>
      <point x="351" y="193"/>
      <point x="427" y="116"/>
      <point x="427" y="17" type="curve" smooth="yes"/>
      <point x="427" y="-83"/>
      <point x="350" y="-160"/>
      <point x="240" y="-160" type="curve" smooth="yes"/>
      <point x="210" y="-160" type="line"/>
    </contour>
    <contour>
      <point x="90" y="0" type="line"/>
      <point x="130" y="0" type="line"/>
      <point x="130" y="523" type="line" smooth="yes"/>
      <point x="130" y="602"/>
      <point x="195" y="667"/>
      <point x="274" y="667" type="curve" smooth="yes"/>
      <point x="292" y="667" type="line"/>
      <point x="292" y="706" type="line"/>
      <point x="273" y="706" type="line" smooth="yes"/>
      <point x="173" y="706"/>
      <point x="91" y="624"/>
      <point x="91" y="523" type="curve" smooth="yes"/>
    </contour>
  </outline>
</glyph>
<glyph name="eth" format="2">
  <advance width="614"/>
  <unicode hex="00F0"/>
  <outline>
    <contour>
      <point x="489" y="399" type="line"/>
      <point x="535" y="399" type="line"/>
      <point x="355" y="706" type="line"/>
      <point x="299" y="706" type="line"/>
    </contour>
    <component base="o"/>
    <contour>
      <point x="249" y="576" type="line"/>
      <point x="523" y="610" type="line"/>
      <point x="518" y="650" type="line"/>
      <point x="244" y="615" type="line"/>
    </contour>
  </outline>
</glyph>
<glyph name="divide" format="2">
  <advance width="512"/>
  <unicode hex="00F7"/>
  <outline>
    <contour>
      <point x="80" y="344" type="line"/>
      <point x="432" y="344" type="line"/>
      <point x="432" y="384" type="line"/>
      <point x="80" y="384" type="line"/>
    </contour>
    <contour>
      <point x="257" y="98" type="curve" smooth="yes"/>
      <point x="280" y="98"/>
      <point x="299" y="117"/>
      <point x="299" y="141" type="curve" smooth="yes"/>
      <point x="299" y="163"/>
      <point x="280" y="183"/>
      <point x="257" y="183" type="curve" smooth="yes"/>
      <point x="234" y="183"/>
      <point x="214" y="163"/>
      <point x="214" y="141" type="curve" smooth="yes"/>
      <point x="214" y="117"/>
      <point x="234" y="98"/>
    </contour>
    <contour>
      <point x="257" y="526" type="curve" smooth="yes"/>
      <point x="280" y="526"/>
      <point x="299" y="545"/>
      <point x="299" y="569" type="curve" smooth="yes"/>
      <point x="299" y="591"/>
      <point x="280" y="611"/>
      <point x="257" y="611" type="curve" smooth="yes"/>
      <point x="234" y="611"/>
      <point x="214" y="591"/>
      <point x="214" y="569" type="curve" smooth="yes"/>
      <point x="214" y="545"/>
      <point x="234" y="526"/>
    </contour>
  </outline>
</glyph>
<glyph name="oslash" format="2">
  <advance width="629"/>
  <unicode hex="00F8"/>
  <outline>
    <component base="o"/>
    <contour>
      <point x="98" y="10" type="line"/>
      <point x="564" y="476" type="line"/>
      <point x="536" y="503" type="line"/>
      <point x="70" y="37" type="line"/>
    </contour>
  </outline>
</glyph>
<glyph name="thorn" format="2">
  <advance width="654"/>
  <unicode hex="00FE"/>
  <outline>
    <contour>
      <point x="347" y="0" type="curve" smooth="yes"/>
      <point x="493" y="0"/>
      <point x="604" y="111"/>
      <point x="604" y="256" type="curve" smooth="yes"/>
      <point x="604" y="402"/>
      <point x="493" y="513"/>
      <point x="347" y="513" type="curve" smooth="yes"/>
      <point x="201" y="513"/>
      <point x="90" y="402"/>
      <point x="90" y="256" type="curve" smooth="yes"/>
      <point x="90" y="111"/>
      <point x="201" y="0"/>
    </contour>
    <contour>
      <point x="90" y="-200" type="line"/>
      <point x="130" y="-200" type="line"/>
      <point x="130" y="706" type="line"/>
      <point x="90" y="706" type="line"/>
    </contour>
    <contour>
      <point x="347" y="40" type="curve" smooth="yes"/>
      <point x="224" y="40"/>
      <point x="130" y="134"/>
      <point x="130" y="256" type="curve" smooth="yes"/>
      <point x="130" y="379"/>
      <point x="224" y="473"/>
      <point x="347" y="473" type="curve" smooth="yes"/>
      <point x="470" y="473"/>
      <point x="564" y="379"/>
      <point x="564" y="256" type="curve" smooth="yes"/>
      <point x="564" y="134"/>
      <point x="470" y="40"/>
    </contour>
  </outline>
</glyph>
<glyph name="dcroat" format="2">
  <advance width="664"/>
  <unicode hex="0111"/>
  <outline>
    <contour>
      <point x="373" y="595" type="line"/>
      <point x="654" y="595" type="line"/>
      <point x="654" y="633" type="line"/>
      <point x="373" y="633" type="line"/>
    </contour>
    <component base="d"/>
  </outline>
</glyph>
<glyph name="Hbar" format="2">
  <advance width="520"/>
  <unicode hex="0126"/>
  <outline>
    <contour>
      <point x="80" y="706" type="line"/>
      <point x="80" y="0" type="line"/>
      <point x="120" y="0" type="line"/>
      <point x="120" y="332" type="line"/>
      <point x="400" y="332" type="line"/>
      <point x="400" y="0" type="line"/>
      <point x="440" y="0" type="line"/>
      <point x="440" y="706" type="line"/>
      <point x="400" y="706" type="line"/>
      <point x="400" y="372" type="line"/>
      <point x="120" y="372" type="line"/>
      <point x="120" y="706" type="line"/>
    </contour>
    <contour>
      <point x="20" y="552" type="line"/>
      <point x="500" y="552" type="line"/>
      <point x="500" y="585" type="line"/>
      <point x="20" y="585" type="line"/>
    </contour>
  </outline>
</glyph>
<glyph name="hbar" format="2">
  <advance width="535"/>
  <unicode hex="0127"/>
  <outline>
    <contour>
      <point x="10" y="583" type="line"/>
      <point x="281" y="583" type="line"/>
      <point x="281" y="623" type="line"/>
      <point x="10" y="623" type="line"/>
    </contour>
    <component base="h" xOffset="10"/>
  </outline>
</glyph>
<glyph name="idotless" format="2">
  <advance width="228"/>
  <unicode hex="0131"/>
  <anchor x="114" y="0" name="bottom"/>
  <anchor x="134" y="0" name="ogonek"/>
  <anchor x="114" y="513" name="top"/>
  <outline>
    <contour>
      <point x="94" y="513" type="line"/>
      <point x="94" y="0" type="line"/>
      <point x="134" y="0" type="line"/>
      <point x="134" y="513" type="line"/>
    </contour>
  </outline>
</glyph>
<glyph name="IJ" format="2">
  <advance width="513"/>
  <unicode hex="0132"/>
  <anchor x="296" y="0" name="bottom"/>
  <anchor x="401" y="706" name="top"/>
  <outline>
    <contour>
      <point x="90" y="300" type="line"/>
      <point x="130" y="300" type="line"/>
      <point x="130" y="706" type="line"/>
      <point x="90" y="706" type="line"/>
    </contour>
    <component base="J" xOffset="60"/>
  </outline>
</glyph>
<glyph name="Lslash" format="2">
  <advance width="300"/>
  <unicode hex="0141"/>
  <outline>
    <contour>
      <point x="32" y="224" type="line"/>
      <point x="252" y="387" type="line"/>
      <point x="231" y="420" type="line"/>
      <point x="10" y="257" type="line"/>
    </contour>
    <component base="L" xOffset="-40"/>
  </outline>
</glyph>
<glyph name="lslash" format="2">
  <advance width="220"/>
  <unicode hex="0142"/>
  <outline>
    <contour>
      <point x="32" y="224" type="line"/>
      <point x="252" y="387" type="line"/>
      <point x="231" y="420" type="line"/>
      <point x="10" y="257" type="line"/>
    </contour>
    <component base="l"/>
  </outline>
</glyph>
<glyph name="Schwa" format="2">
  <advance width="797"/>
  <unicode hex="018F"/>
  <guideline x="231" y="374" angle="0"/>
  <outline>
    <contour>
      <point x="397" y="0" type="curve" smooth="yes"/>
      <point x="598" y="0"/>
      <point x="751" y="153"/>
      <point x="751" y="353" type="curve" smooth="yes"/>
      <point x="751" y="553"/>
      <point x="598" y="706"/>
      <point x="397" y="706" type="curve" smooth="yes"/>
      <point x="211" y="706"/>
      <point x="66" y="574"/>
      <point x="46" y="394" type="curve"/>
      <point x="88" y="394" type="line"/>
      <point x="107" y="550"/>
      <point x="235" y="664"/>
      <point x="397" y="664" type="curve" smooth="yes"/>
      <point x="573" y="664"/>
      <point x="708" y="529"/>
      <point x="708" y="353" type="curve" smooth="yes"/>
      <point x="708" y="177"/>
      <point x="573" y="42"/>
      <point x="397" y="42" type="curve" smooth="yes"/>
      <point x="242" y="42"/>
      <point x="118" y="146"/>
      <point x="91" y="292" type="curve"/>
      <point x="49" y="292" type="line"/>
      <point x="77" y="122"/>
      <point x="218" y="0"/>
    </contour>
    <contour>
      <point x="46" y="374" type="line"/>
      <point x="732" y="374" type="line"/>
      <point x="732" y="414" type="line"/>
      <point x="71" y="414" type="line"/>
      <point x="46" y="394" type="line"/>
    </contour>
  </outline>
</glyph>
<glyph name="jdotless" format="2">
  <advance width="228"/>
  <unicode hex="0237"/>
  <anchor x="114" y="-200" name="bottom"/>
  <anchor x="114" y="513" name="top"/>
  <outline>
    <contour>
      <point x="94" y="513" type="line"/>
      <point x="94" y="-200" type="line"/>
      <point x="96" y="-200" type="line"/>
      <point x="134" y="-146" type="line"/>
      <point x="134" y="513" type="line"/>
    </contour>
  </outline>
</glyph>
<glyph name="acutecomb" format="2">
  <advance width="298"/>
  <unicode hex="0301"/>
  <guideline x="40" y="617" angle="0"/>
  <anchor x="149" y="513" name="_top"/>
  <anchor x="149" y="706" name="top"/>
  <outline>
    <contour>
      <point x="55" y="594" type="line"/>
      <point x="259" y="650" type="line"/>
      <point x="246" y="690" type="line"/>
      <point x="44" y="624" type="line"/>
    </contour>
  </outline>
</glyph>
<glyph name="circumflexcomb" format="2">
  <advance width="296"/>
  <unicode hex="0302"/>
  <anchor x="168" y="513" name="_top"/>
  <anchor x="168" y="713" name="top"/>
  <outline>
    <contour>
      <point x="68" y="611" type="line"/>
      <point x="168" y="670" type="line"/>
      <point x="268" y="611" type="line"/>
      <point x="286" y="642" type="line"/>
      <point x="168" y="713" type="line"/>
      <point x="50" y="642" type="line"/>
    </contour>
  </outline>
</glyph>
<glyph name="tildecomb" format="2">
  <advance width="365"/>
  <unicode hex="0303"/>
  <anchor x="188" y="513" name="_top"/>
  <anchor x="188" y="706" name="top"/>
  <outline>
    <contour>
      <point x="254" y="587" type="curve" smooth="yes"/>
      <point x="282" y="589"/>
      <point x="303" y="612"/>
      <point x="314" y="644" type="curve" smooth="yes"/>
      <point x="319" y="659" type="line"/>
      <point x="281" y="668" type="line"/>
      <point x="276" y="650" type="line" smooth="yes"/>
      <point x="271" y="635"/>
      <point x="265" y="624"/>
      <point x="251" y="623" type="curve" smooth="yes"/>
      <point x="241" y="622"/>
      <point x="228" y="629"/>
      <point x="215" y="638" type="curve" smooth="yes"/>
      <point x="182" y="661" type="line" smooth="yes"/>
      <point x="159" y="677"/>
      <point x="139" y="684"/>
      <point x="119" y="683" type="curve" smooth="yes"/>
      <point x="91" y="680"/>
      <point x="69" y="658"/>
      <point x="60" y="627" type="curve" smooth="yes"/>
      <point x="56" y="611" type="line"/>
      <point x="92" y="601" type="line"/>
      <point x="97" y="619" type="line" smooth="yes"/>
      <point x="102" y="635"/>
      <point x="108" y="646"/>
      <point x="122" y="647" type="curve" smooth="yes"/>
      <point x="132" y="648"/>
      <point x="144" y="643"/>
      <point x="159" y="632" type="curve" smooth="yes"/>
      <point x="192" y="609" type="line" smooth="yes"/>
      <point x="215" y="593"/>
      <point x="234" y="586"/>
    </contour>
  </outline>
</glyph>
<glyph name="macroncomb" format="2">
  <advance width="318"/>
  <unicode hex="0304"/>
  <anchor x="159" y="513" name="_top"/>
  <anchor x="159" y="688" name="top"/>
  <outline>
    <contour>
      <point x="70" y="624" type="line"/>
      <point x="248" y="624" type="line"/>
      <point x="248" y="664" type="line"/>
      <point x="70" y="664" type="line"/>
    </contour>
  </outline>
</glyph>
<glyph name="brevecomb" format="2">
  <advance width="311"/>
  <unicode hex="0306"/>
  <anchor x="156" y="513" name="_top"/>
  <anchor x="156" y="706" name="top"/>
  <outline>
    <contour>
      <point x="156" y="584" type="curve" smooth="yes"/>
      <point x="226" y="584"/>
      <point x="281" y="639"/>
      <point x="281" y="710" type="curve" smooth="yes"/>
      <point x="281" y="717" type="line"/>
      <point x="242" y="717" type="line"/>
      <point x="242" y="710" type="line" smooth="yes"/>
      <point x="242" y="661"/>
      <point x="204" y="623"/>
      <point x="156" y="623" type="curve" smooth="yes"/>
      <point x="107" y="623"/>
      <point x="69" y="661"/>
      <point x="69" y="710" type="curve" smooth="yes"/>
      <point x="69" y="717" type="line"/>
      <point x="30" y="717" type="line"/>
      <point x="30" y="710" type="line" smooth="yes"/>
      <point x="30" y="639"/>
      <point x="85" y="584"/>
    </contour>
  </outline>
</glyph>
<glyph name="dotaccentcomb" format="2">
  <advance width="278"/>
  <unicode hex="0307"/>
  <anchor x="139" y="513" name="_top"/>
  <anchor x="139" y="721" name="top"/>
  <outline>
    <contour>
      <point x="140" y="619" type="curve" smooth="yes"/>
      <point x="162" y="619"/>
      <point x="181" y="637"/>
      <point x="181" y="661" type="curve" smooth="yes"/>
      <point x="181" y="683"/>
      <point x="162" y="701"/>
      <point x="140" y="701" type="curve" smooth="yes"/>
      <point x="116" y="701"/>
      <point x="97" y="683"/>
      <point x="97" y="661" type="curve" smooth="yes"/>
      <point x="97" y="637"/>
      <point x="116" y="619"/>
    </contour>
  </outline>
</glyph>
<glyph name="dieresiscomb" format="2">
  <advance width="344"/>
  <unicode hex="0308"/>
  <anchor x="172" y="513" name="_top"/>
  <anchor x="172" y="711" name="top"/>
  <outline>
    <contour>
      <point x="253" y="629" type="curve" smooth="yes"/>
      <point x="275" y="629"/>
      <point x="294" y="647"/>
      <point x="294" y="671" type="curve" smooth="yes"/>
      <point x="294" y="693"/>
      <point x="275" y="711"/>
      <point x="253" y="711" type="curve" smooth="yes"/>
      <point x="229" y="711"/>
      <point x="210" y="693"/>
      <point x="210" y="671" type="curve" smooth="yes"/>
      <point x="210" y="647"/>
      <point x="229" y="629"/>
    </contour>
    <contour>
      <point x="93" y="629" type="curve" smooth="yes"/>
      <point x="115" y="629"/>
      <point x="134" y="647"/>
      <point x="134" y="671" type="curve" smooth="yes"/>
      <point x="134" y="693"/>
      <point x="115" y="711"/>
      <point x="93" y="711" type="curve" smooth="yes"/>
      <point x="69" y="711"/>
      <point x="50" y="693"/>
      <point x="50" y="671" type="curve" smooth="yes"/>
      <point x="50" y="647"/>
      <point x="69" y="629"/>
    </contour>
  </outline>
</glyph>
<glyph name="ringcomb" format="2">
  <advance width="291"/>
  <unicode hex="030A"/>
  <anchor x="146" y="513" name="_top"/>
  <outline>
    <contour>
      <point x="146" y="485" type="curve" smooth="yes"/>
      <point x="188" y="485"/>
      <point x="222" y="519"/>
      <point x="222" y="562" type="curve" smooth="yes"/>
      <point x="222" y="604"/>
      <point x="188" y="638"/>
      <point x="146" y="638" type="curve" smooth="yes"/>
      <point x="103" y="638"/>
      <point x="69" y="604"/>
      <point x="69" y="562" type="curve" smooth="yes"/>
      <point x="69" y="519"/>
      <point x="103" y="485"/>
    </contour>
    <contour>
      <point x="146" y="521" type="curve" smooth="yes"/>
      <point x="123" y="521"/>
      <point x="105" y="539"/>
      <point x="105" y="562" type="curve" smooth="yes"/>
      <point x="105" y="584"/>
      <point x="123" y="602"/>
      <point x="146" y="602" type="curve" smooth="yes"/>
      <point x="168" y="602"/>
      <point x="186" y="584"/>
      <point x="186" y="562" type="curve" smooth="yes"/>
      <point x="186" y="539"/>
      <point x="168" y="521"/>
    </contour>
  </outline>
</glyph>
<glyph name="hungarumlautcomb" format="2">
  <advance width="304"/>
  <unicode hex="030B"/>
  <guideline x="-23" y="617" angle="0"/>
  <anchor x="122" y="513" name="_top"/>
  <anchor x="152" y="800" name="top"/>
  <outline>
    <contour>
      <point x="156" y="587" type="line"/>
      <point x="193" y="587" type="line"/>
      <point x="251" y="732" type="line"/>
      <point x="206" y="732" type="line"/>
    </contour>
    <contour>
      <point x="50" y="587" type="line"/>
      <point x="87" y="587" type="line"/>
      <point x="120" y="732" type="line"/>
      <point x="75" y="732" type="line"/>
    </contour>
  </outline>
</glyph>
<glyph name="caroncomb" format="2">
  <advance width="296"/>
  <unicode hex="030C"/>
  <anchor x="168" y="513" name="_top"/>
  <anchor x="168" y="706" name="top"/>
  <outline>
    <contour>
      <point x="168" y="611" type="line"/>
      <point x="286" y="682" type="line"/>
      <point x="268" y="713" type="line"/>
      <point x="168" y="654" type="line"/>
      <point x="68" y="713" type="line"/>
      <point x="50" y="682" type="line"/>
    </contour>
  </outline>
</glyph>
<glyph name="commaturnedabovecomb" format="2">
  <advance width="147"/>
  <unicode hex="0312"/>
  <anchor x="74" y="513" name="_top"/>
  <anchor x="74" y="762" name="top"/>
  <outline>
    <contour>
      <point x="50" y="597" type="line"/>
      <point x="97" y="597" type="line"/>
      <point x="97" y="762" type="line"/>
      <point x="67" y="762" type="line"/>
    </contour>
  </outline>
</glyph>
<glyph name="commaaccentcomb" format="2">
  <advance width="147"/>
  <unicode hex="0326"/>
  <anchor x="74" y="0" name="_bottom"/>
  <anchor x="74" y="-226" name="bottom"/>
  <outline>
    <contour>
      <point x="50" y="-226" type="line"/>
      <point x="80" y="-226" type="line"/>
      <point x="97" y="-61" type="line"/>
      <point x="50" y="-61" type="line"/>
    </contour>
  </outline>
</glyph>
<glyph name="cedillacomb" format="2">
  <advance width="121"/>
  <unicode hex="0327"/>
  <anchor x="77" y="0" name="_bottom"/>
  <outline>
    <contour>
      <point x="34" y="-144" type="line"/>
      <point x="100" y="16" type="line"/>
      <point x="71" y="24" type="line"/>
      <point x="-6" y="-125" type="line"/>
    </contour>
  </outline>
</glyph>
<glyph name="ogonekcomb" format="2">
  <advance width="204"/>
  <unicode hex="0328"/>
  <anchor x="124" y="0" name="_ogonek"/>
  <outline>
    <contour>
      <point x="103" y="20" type="line"/>
      <point x="73" y="-10" type="line" smooth="yes"/>
      <point x="54" y="-29"/>
      <point x="46" y="-50"/>
      <point x="46" y="-69" type="curve" smooth="yes"/>
      <point x="46" y="-108"/>
      <point x="79" y="-143"/>
      <point x="136" y="-148" type="curve" smooth="yes"/>
      <point x="142" y="-148" type="line"/>
      <point x="144" y="-108" type="line"/>
      <point x="138" y="-108" type="line" smooth="yes"/>
      <point x="108" y="-106"/>
      <point x="88" y="-90"/>
      <point x="85" y="-68" type="curve" smooth="yes"/>
      <point x="83" y="-52"/>
      <point x="90" y="-32"/>
      <point x="111" y="-12" type="curve" smooth="yes"/>
      <point x="124" y="0" type="line"/>
    </contour>
  </outline>
</glyph>
<glyph name="Germandbls" format="2">
  <advance width="538"/>
  <unicode hex="1E9E"/>
  <outline>
    <contour>
      <point x="100" y="0" type="line"/>
      <point x="143" y="0" type="line"/>
      <point x="143" y="666" type="line"/>
      <point x="387" y="666" type="line"/>
      <point x="257" y="393" type="line"/>
      <point x="260" y="393" type="line" smooth="yes"/>
      <point x="371" y="393"/>
      <point x="447" y="318"/>
      <point x="447" y="217" type="curve" smooth="yes"/>
      <point x="447" y="117"/>
      <point x="370" y="40"/>
      <point x="260" y="40" type="curve" smooth="yes"/>
      <point x="230" y="40" type="line"/>
      <point x="230" y="0" type="line"/>
      <point x="260" y="0" type="line" smooth="yes"/>
      <point x="392" y="0"/>
      <point x="488" y="94"/>
      <point x="488" y="217" type="curve" smooth="yes"/>
      <point x="488" y="319"/>
      <point x="422" y="410"/>
      <point x="319" y="426" type="curve"/>
      <point x="450" y="706" type="line"/>
      <point x="100" y="706" type="line"/>
    </contour>
  </outline>
</glyph>
<glyph name="bullet" format="2">
  <advance width="434"/>
  <unicode hex="2022"/>
  <outline>
    <contour>
      <point x="217" y="306" type="curve" smooth="yes"/>
      <point x="254" y="306"/>
      <point x="284" y="336"/>
      <point x="284" y="373" type="curve" smooth="yes"/>
      <point x="284" y="410"/>
      <point x="254" y="440"/>
      <point x="217" y="440" type="curve" smooth="yes"/>
      <point x="180" y="440"/>
      <point x="150" y="410"/>
      <point x="150" y="373" type="curve" smooth="yes"/>
      <point x="150" y="336"/>
      <point x="180" y="306"/>
    </contour>
  </outline>
</glyph>
<glyph name="guilsinglleft" format="2">
  <advance width="223"/>
  <unicode hex="2039"/>
  <outline>
    <contour>
      <point x="123" y="69" type="line"/>
      <point x="173" y="69" type="line"/>
      <point x="104" y="263" type="line"/>
      <point x="173" y="457" type="line"/>
      <point x="123" y="457" type="line"/>
      <point x="50" y="263" type="line"/>
    </contour>
  </outline>
</glyph>
<glyph name="Euro" format="2">
  <advance width="467"/>
  <unicode hex="20AC"/>
  <outline>
    <contour>
      <point x="20" y="383" type="line"/>
      <point x="380" y="383" type="line"/>
      <point x="380" y="423" type="line"/>
      <point x="20" y="423" type="line"/>
    </contour>
    <contour>
      <point x="20" y="283" type="line"/>
      <point x="380" y="283" type="line"/>
      <point x="380" y="323" type="line"/>
      <point x="20" y="323" type="line"/>
    </contour>
    <component base="C" xOffset="3" identifier="531EC546"/>
  </outline>
</glyph>
<glyph name="numero" format="2">
  <advance width="1056"/>
  <unicode hex="2116"/>
  <outline>
    <contour>
      <point x="721" y="433" type="curve" smooth="yes"/>
      <point x="797" y="433"/>
      <point x="856" y="492"/>
      <point x="856" y="571" type="curve" smooth="yes"/>
      <point x="856" y="647"/>
      <point x="797" y="706"/>
      <point x="721" y="706" type="curve" smooth="yes"/>
      <point x="643" y="706"/>
      <point x="584" y="647"/>
      <point x="584" y="571" type="curve" smooth="yes"/>
      <point x="584" y="492"/>
      <point x="643" y="433"/>
    </contour>
    <component base="N.ss01"/>
    <component base="period" xOffset="628" yOffset="187"/>
    <contour>
      <point x="723" y="478" type="curve" smooth="yes"/>
      <point x="669" y="478"/>
      <point x="628" y="518"/>
      <point x="628" y="571" type="curve" smooth="yes"/>
      <point x="628" y="622"/>
      <point x="669" y="663"/>
      <point x="723" y="663" type="curve" smooth="yes"/>
      <point x="773" y="663"/>
      <point x="813" y="622"/>
      <point x="813" y="571" type="curve" smooth="yes"/>
      <point x="813" y="518"/>
      <point x="773" y="478"/>
    </contour>
  </outline>
</glyph>
<glyph name="rightArrow" format="2">
  <advance width="765"/>
  <unicode hex="2192"/>
  <outline>
    <contour>
      <point x="507" y="267" type="line"/>
      <point x="750" y="353" type="line"/>
      <point x="507" y="439" type="line"/>
      <point x="507" y="369" type="line"/>
      <point x="40" y="393" type="line"/>
      <point x="40" y="313" type="line"/>
      <point x="507" y="337" type="line"/>
    </contour>
  </outline>
</glyph>
<glyph name="downArrow" format="2">
  <advance width="242"/>
  <unicode hex="2193"/>
  <outline>
    <contour>
      <point x="115" y="137" type="line"/>
      <point x="137" y="137" type="line"/>
      <point x="166" y="706" type="line"/>
      <point x="76" y="706" type="line"/>
    </contour>
    <contour>
      <point x="123" y="-19" type="line"/>
      <point x="212" y="204" type="line"/>
      <point x="30" y="204" type="line"/>
    </contour>
  </outline>
</glyph>
<glyph name="minus" format="2">
  <advance width="512"/>
  <unicode hex="2212"/>
  <outline>
    <contour>
      <point x="80" y="314" type="line"/>
      <point x="432" y="314" type="line"/>
      <point x="432" y="354" type="line"/>
      <point x="80" y="354" type="line"/>
    </contour>
  </outline>
</glyph>
<glyph name="whiteSmilingFace" format="2">
  <advance width="811"/>
  <unicode hex="263A"/>
  <outline>
    <contour>
      <point x="195" y="0" type="line"/>
      <point x="591" y="0" type="line"/>
      <point x="591" y="40" type="line"/>
      <point x="251" y="40" type="line"/>
      <point x="473" y="706" type="line"/>
      <point x="431" y="706" type="line"/>
    </contour>
    <contour>
      <point x="179" y="428" type="curve" smooth="yes"/>
      <point x="257" y="428"/>
      <point x="318" y="489"/>
      <point x="318" y="567" type="curve" smooth="yes"/>
      <point x="318" y="645"/>
      <point x="257" y="706"/>
      <point x="179" y="706" type="curve" smooth="yes"/>
      <point x="101" y="706"/>
      <point x="40" y="645"/>
      <point x="40" y="567" type="curve" smooth="yes"/>
      <point x="40" y="489"/>
      <point x="101" y="428"/>
    </contour>
    <contour>
      <point x="179" y="470" type="curve" smooth="yes"/>
      <point x="124" y="470"/>
      <point x="82" y="512"/>
      <point x="82" y="567" type="curve" smooth="yes"/>
      <point x="82" y="622"/>
      <point x="124" y="664"/>
      <point x="179" y="664" type="curve" smooth="yes"/>
      <point x="234" y="664"/>
      <point x="276" y="622"/>
      <point x="276" y="567" type="curve" smooth="yes"/>
      <point x="276" y="512"/>
      <point x="234" y="470"/>
    </contour>
    <contour>
      <point x="632" y="428" type="curve" smooth="yes"/>
      <point x="710" y="428"/>
      <point x="771" y="489"/>
      <point x="771" y="567" type="curve" smooth="yes"/>
      <point x="771" y="645"/>
      <point x="710" y="706"/>
      <point x="632" y="706" type="curve" smooth="yes"/>
      <point x="554" y="706"/>
      <point x="493" y="645"/>
      <point x="493" y="567" type="curve" smooth="yes"/>
      <point x="493" y="489"/>
      <point x="554" y="428"/>
    </contour>
    <contour>
      <point x="632" y="470" type="curve" smooth="yes"/>
      <point x="577" y="470"/>
      <point x="535" y="512"/>
      <point x="535" y="567" type="curve" smooth="yes"/>
      <point x="535" y="622"/>
      <point x="577" y="664"/>
      <point x="632" y="664" type="curve" smooth="yes"/>
      <point x="687" y="664"/>
      <point x="729" y="622"/>
      <point x="729" y="567" type="curve" smooth="yes"/>
      <point x="729" y="512"/>
      <point x="687" y="470"/>
    </contour>
  </outline>
</glyph>
<glyph name="Saltillo" format="2">
  <advance width="180"/>
  <unicode hex="A78B"/>
  <outline>
    <contour>
      <point x="75" y="346" type="line"/>
      <point x="105" y="346" type="line"/>
      <point x="120" y="706" type="line"/>
      <point x="60" y="706" type="line"/>
    </contour>
  </outline>
</glyph>
<glyph name="saltillo" format="2">
  <advance width="140"/>
  <unicode hex="A78C"/>
  <outline>
    <contour>
      <point x="50" y="493" type="line"/>
      <point x="90" y="493" type="line"/>
      <point x="90" y="730" type="line"/>
      <point x="50" y="730" type="line"/>
    </contour>
  </outline>
</glyph>
<glyph name="A.ss01" format="2">
  <advance width="528"/>
  <anchor x="264" y="0" name="bottom"/>
  <anchor x="498" y="0" name="ogonek"/>
  <anchor x="264" y="706" name="top"/>
  <outline>
    <contour>
      <point x="30" y="0" type="line"/>
      <point x="72" y="0" type="line"/>
      <point x="264" y="667" type="line"/>
      <point x="456" y="0" type="line"/>
      <point x="498" y="0" type="line"/>
      <point x="290" y="706" type="line"/>
      <point x="238" y="706" type="line"/>
    </contour>
    <contour>
      <point x="128" y="274" type="line"/>
      <point x="400" y="274" type="line"/>
      <point x="386" y="314" type="line"/>
      <point x="142" y="314" type="line"/>
    </contour>
  </outline>
</glyph>
<glyph name="C.ss03" format="2">
  <advance width="796"/>
  <anchor x="390" y="0" name="bottom"/>
  <anchor x="400" y="706" name="top"/>
  <outline>
    <contour>
      <point x="400" y="0" type="curve" smooth="yes"/>
      <point x="583" y="0"/>
      <point x="726" y="127"/>
      <point x="750" y="302" type="curve"/>
      <point x="707" y="302" type="line"/>
      <point x="684" y="151"/>
      <point x="559" y="42"/>
      <point x="400" y="42" type="curve" smooth="yes"/>
      <point x="224" y="42"/>
      <point x="89" y="177"/>
      <point x="89" y="353" type="curve" smooth="yes"/>
      <point x="89" y="529"/>
      <point x="224" y="664"/>
      <point x="400" y="664" type="curve" smooth="yes"/>
      <point x="559" y="664"/>
      <point x="684" y="555"/>
      <point x="707" y="404" type="curve"/>
      <point x="750" y="404" type="line"/>
      <point x="726" y="579"/>
      <point x="583" y="706"/>
      <point x="400" y="706" type="curve" smooth="yes"/>
      <point x="199" y="706"/>
      <point x="46" y="553"/>
      <point x="46" y="353" type="curve" smooth="yes"/>
      <point x="46" y="153"/>
      <point x="199" y="0"/>
    </contour>
  </outline>
</glyph>
<glyph name="D.ss01" format="2">
  <advance width="549"/>
  <anchor x="265" y="0" name="bottom"/>
  <anchor x="265" y="353" name="center"/>
  <anchor x="265" y="706" name="top"/>
  <outline>
    <contour>
      <point x="100" y="0" type="line"/>
      <point x="251" y="0" type="line" smooth="yes"/>
      <point x="371" y="0"/>
      <point x="469" y="98"/>
      <point x="469" y="218" type="curve" smooth="yes"/>
      <point x="469" y="488" type="line" smooth="yes"/>
      <point x="469" y="608"/>
      <point x="372" y="705"/>
      <point x="252" y="706" type="curve" smooth="yes"/>
      <point x="100" y="706" type="line"/>
    </contour>
    <contour>
      <point x="140" y="40" type="line"/>
      <point x="140" y="666" type="line"/>
      <point x="251" y="666" type="line" smooth="yes"/>
      <point x="349" y="666"/>
      <point x="429" y="586"/>
      <point x="429" y="488" type="curve" smooth="yes"/>
      <point x="429" y="218" type="line" smooth="yes"/>
      <point x="429" y="120"/>
      <point x="349" y="40"/>
      <point x="251" y="40" type="curve" smooth="yes"/>
    </contour>
  </outline>
</glyph>
<glyph name="Dcroat.ss01" format="2">
  <advance width="551"/>
  <outline>
    <contour>
      <point x="50" y="334" type="line"/>
      <point x="261" y="334" type="line"/>
      <point x="261" y="374" type="line"/>
      <point x="50" y="374" type="line"/>
    </contour>
    <component base="D.ss01"/>
  </outline>
</glyph>
<glyph name="G.ss01" format="2">
  <advance width="529"/>
  <outline>
    <contour>
      <point x="265" y="-10" type="curve" smooth="yes"/>
      <point x="385" y="-10"/>
      <point x="483" y="88"/>
      <point x="483" y="208" type="curve" smooth="yes"/>
      <point x="483" y="319" type="line"/>
      <point x="443" y="319" type="line"/>
      <point x="443" y="208" type="line" smooth="yes"/>
      <point x="443" y="110"/>
      <point x="363" y="30"/>
      <point x="265" y="30" type="curve" smooth="yes"/>
      <point x="166" y="30"/>
      <point x="86" y="110"/>
      <point x="86" y="208" type="curve" smooth="yes"/>
      <point x="86" y="498" type="line" smooth="yes"/>
      <point x="86" y="596"/>
      <point x="166" y="676"/>
      <point x="265" y="676" type="curve" smooth="yes"/>
      <point x="363" y="676"/>
      <point x="443" y="596"/>
      <point x="443" y="498" type="curve" smooth="yes"/>
      <point x="443" y="487" type="line"/>
      <point x="483" y="487" type="line"/>
      <point x="483" y="498" type="line" smooth="yes"/>
      <point x="483" y="618"/>
      <point x="385" y="716"/>
      <point x="265" y="716" type="curve" smooth="yes"/>
      <point x="144" y="716"/>
      <point x="46" y="618"/>
      <point x="46" y="498" type="curve" smooth="yes"/>
      <point x="46" y="208" type="line" smooth="yes"/>
      <point x="46" y="88"/>
      <point x="144" y="-10"/>
    </contour>
    <contour>
      <point x="271" y="319" type="line"/>
      <point x="483" y="319" type="line"/>
      <point x="483" y="359" type="line"/>
      <point x="271" y="359" type="line"/>
    </contour>
  </outline>
</glyph>
<glyph name="J.ss01" format="2">
  <advance width="453"/>
  <outline>
    <contour>
      <point x="196" y="0" type="curve" smooth="yes"/>
      <point x="288" y="0"/>
      <point x="363" y="77"/>
      <point x="363" y="168" type="curve" smooth="yes"/>
      <point x="363" y="706" type="line"/>
      <point x="322" y="706" type="line"/>
      <point x="322" y="167" type="line" smooth="yes"/>
      <point x="322" y="97"/>
      <point x="267" y="41"/>
      <point x="197" y="41" type="curve" smooth="yes"/>
      <point x="126" y="41"/>
      <point x="70" y="98"/>
      <point x="70" y="167" type="curve" smooth="yes"/>
      <point x="70" y="217" type="line"/>
      <point x="30" y="217" type="line"/>
      <point x="30" y="168" type="line" smooth="yes"/>
      <point x="30" y="78"/>
      <point x="103" y="0"/>
    </contour>
    <contour>
      <point x="115" y="666" type="line"/>
      <point x="350" y="666" type="line"/>
      <point x="350" y="706" type="line"/>
      <point x="115" y="706" type="line"/>
    </contour>
  </outline>
</glyph>
<glyph name="K.ss01" format="2">
  <advance width="494"/>
  <anchor x="247" y="0" name="bottom"/>
  <anchor x="247" y="706" name="top"/>
  <outline>
    <contour>
      <point x="120" y="245" type="line"/>
      <point x="459" y="663" type="line"/>
      <point x="459" y="725" type="line"/>
      <point x="458" y="726" type="line"/>
      <point x="120" y="310" type="line"/>
    </contour>
    <contour>
      <point x="100" y="0" type="line"/>
      <point x="140" y="0" type="line"/>
      <point x="140" y="706" type="line"/>
      <point x="100" y="706" type="line"/>
    </contour>
    <contour>
      <point x="431" y="0" type="line"/>
      <point x="479" y="0" type="line"/>
      <point x="271" y="466" type="line"/>
      <point x="242" y="424" type="line"/>
    </contour>
  </outline>
</glyph>
<glyph name="L_L.dlig" format="2">
  <advance width="525"/>
  <outline>
    <contour>
      <point x="100" y="0" type="line"/>
      <point x="379" y="0" type="line"/>
      <point x="379" y="40" type="line"/>
      <point x="140" y="40" type="line"/>
      <point x="140" y="706" type="line"/>
      <point x="100" y="706" type="line"/>
    </contour>
    <contour>
      <point x="255" y="156" type="line"/>
      <point x="495" y="156" type="line"/>
      <point x="495" y="196" type="line"/>
      <point x="295" y="196" type="line"/>
      <point x="295" y="630" type="line"/>
      <point x="255" y="630" type="line"/>
    </contour>
  </outline>
</glyph>
<glyph name="M.ss01" format="2">
  <advance width="707"/>
  <anchor x="354" y="0" name="bottom"/>
  <anchor x="354" y="706" name="top"/>
  <outline>
    <contour>
      <point x="100" y="0" type="line"/>
      <point x="140" y="0" type="line"/>
      <point x="140" y="631" type="line"/>
      <point x="353" y="308" type="line"/>
      <point x="355" y="308" type="line"/>
      <point x="567" y="631" type="line"/>
      <point x="567" y="0" type="line"/>
      <point x="607" y="0" type="line"/>
      <point x="607" y="706" type="line"/>
      <point x="565" y="706" type="line"/>
      <point x="353" y="380" type="line"/>
      <point x="142" y="706" type="line"/>
      <point x="100" y="706" type="line"/>
    </contour>
  </outline>
</glyph>
<glyph name="N.ss01" format="2">
  <advance width="598"/>
  <anchor x="299" y="0" name="bottom"/>
  <anchor x="299" y="706" name="top"/>
  <outline>
    <contour>
      <point x="100" y="0" type="line"/>
      <point x="140" y="0" type="line"/>
      <point x="140" y="598" type="line"/>
      <point x="468" y="0" type="line"/>
      <point x="498" y="0" type="line"/>
      <point x="498" y="706" type="line"/>
      <point x="458" y="706" type="line"/>
      <point x="458" y="102" type="line"/>
      <point x="128" y="706" type="line"/>
      <point x="100" y="706" type="line"/>
    </contour>
  </outline>
</glyph>
<glyph name="O.001" format="2">
  <advance width="827"/>
  <note>
O
</note>
  <anchor x="414" y="706" name="top"/>
  <outline>
    <contour>
      <point x="414" y="0" type="curve" smooth="yes"/>
      <point x="614" y="0"/>
      <point x="767" y="153"/>
      <point x="767" y="353" type="curve" smooth="yes"/>
      <point x="767" y="553"/>
      <point x="614" y="706"/>
      <point x="414" y="706" type="curve" smooth="yes"/>
      <point x="213" y="706"/>
      <point x="60" y="553"/>
      <point x="60" y="353" type="curve" smooth="yes"/>
      <point x="60" y="153"/>
      <point x="213" y="0"/>
    </contour>
    <contour>
      <point x="414" y="40" type="curve" smooth="yes"/>
      <point x="237" y="40"/>
      <point x="101" y="176"/>
      <point x="101" y="353" type="curve" smooth="yes"/>
      <point x="101" y="530"/>
      <point x="237" y="666"/>
      <point x="414" y="665" type="curve" smooth="yes"/>
      <point x="591" y="666"/>
      <point x="728" y="530"/>
      <point x="727" y="353" type="curve" smooth="yes"/>
      <point x="728" y="176"/>
      <point x="591" y="40"/>
    </contour>
  </outline>
</glyph>
<glyph name="Q.ss01" format="2">
  <advance width="563"/>
  <outline>
    <contour>
      <point x="514" y="-18" type="line"/>
      <point x="515" y="-17" type="line"/>
      <point x="515" y="35" type="line"/>
      <point x="268" y="309" type="line"/>
      <point x="267" y="308" type="line"/>
      <point x="267" y="255" type="line"/>
    </contour>
    <component base="zero.ss01"/>
  </outline>
</glyph>
<glyph name="Schwa.ss01" format="2">
  <advance width="529"/>
  <outline>
    <contour>
      <point x="264" y="0" type="curve" smooth="yes"/>
      <point x="385" y="0"/>
      <point x="483" y="98"/>
      <point x="483" y="218" type="curve" smooth="yes"/>
      <point x="483" y="488" type="line" smooth="yes"/>
      <point x="483" y="608"/>
      <point x="385" y="706"/>
      <point x="264" y="706" type="curve" smooth="yes"/>
      <point x="144" y="706"/>
      <point x="46" y="608"/>
      <point x="46" y="488" type="curve" smooth="yes"/>
      <point x="46" y="387" type="line"/>
      <point x="86" y="387" type="line"/>
      <point x="86" y="488" type="line" smooth="yes"/>
      <point x="86" y="586"/>
      <point x="166" y="666"/>
      <point x="264" y="666" type="curve" smooth="yes"/>
      <point x="363" y="666"/>
      <point x="443" y="586"/>
      <point x="443" y="488" type="curve" smooth="yes"/>
      <point x="443" y="218" type="line" smooth="yes"/>
      <point x="443" y="120"/>
      <point x="363" y="40"/>
      <point x="264" y="40" type="curve" smooth="yes"/>
      <point x="166" y="40"/>
      <point x="86" y="120"/>
      <point x="86" y="218" type="curve" smooth="yes"/>
      <point x="86" y="249" type="line"/>
      <point x="46" y="249" type="line"/>
      <point x="46" y="218" type="line" smooth="yes"/>
      <point x="46" y="98"/>
      <point x="144" y="0"/>
    </contour>
    <contour>
      <point x="46" y="347" type="line"/>
      <point x="468" y="347" type="line"/>
      <point x="468" y="387" type="line"/>
      <point x="46" y="387" type="line"/>
    </contour>
  </outline>
</glyph>
<glyph name="V.ss01" format="2">
  <advance width="467"/>
  <outline>
    <contour>
      <point x="208" y="0" type="line"/>
      <point x="259" y="0" type="line"/>
      <point x="437" y="706" type="line"/>
      <point x="395" y="706" type="line"/>
      <point x="233" y="56" type="line"/>
      <point x="72" y="706" type="line"/>
      <point x="30" y="706" type="line"/>
    </contour>
  </outline>
</glyph>
<glyph name="W.ss01" format="2">
  <advance width="716"/>
  <anchor x="358" y="0" name="bottom"/>
  <anchor x="358" y="706" name="top"/>
  <outline>
    <contour>
      <point x="138" y="0" type="line"/>
      <point x="183" y="0" type="line"/>
      <point x="359" y="498" type="line"/>
      <point x="536" y="0" type="line"/>
      <point x="578" y="0" type="line"/>
      <point x="626" y="706" type="line"/>
      <point x="586" y="706" type="line"/>
      <point x="547" y="99" type="line"/>
      <point x="377" y="562" type="line"/>
      <point x="339" y="562" type="line"/>
      <point x="169" y="99" type="line"/>
      <point x="115" y="706" type="line"/>
      <point x="75" y="706" type="line"/>
    </contour>
  </outline>
</glyph>
<glyph name=".notdef" format="2">
  <advance width="892"/>
  <note>
.notdef
</note>
  <outline>
    <contour>
      <point x="264" y="0" type="line"/>
      <point x="854" y="0" type="line"/>
      <point x="854" y="89" type="line"/>
      <point x="264" y="89" type="line"/>
    </contour>
    <contour>
      <point x="39" y="0" type="line"/>
      <point x="52" y="0" type="line"/>
      <point x="52" y="13" type="line"/>
      <point x="39" y="13" type="line"/>
    </contour>
    <contour>
      <point x="74" y="0" type="line"/>
      <point x="84" y="0" type="line"/>
      <point x="84" y="40" type="line"/>
      <point x="118" y="40" type="line"/>
      <point x="118" y="48" type="line"/>
      <point x="84" y="48" type="line"/>
      <point x="84" y="79" type="line"/>
      <point x="136" y="79" type="line"/>
      <point x="136" y="89" type="line"/>
      <point x="74" y="89" type="line"/>
    </contour>
    <contour>
      <point x="157" y="0" type="line"/>
      <point x="167" y="0" type="line"/>
      <point x="167" y="35" type="line"/>
      <point x="224" y="35" type="line"/>
      <point x="224" y="0" type="line"/>
      <point x="233" y="0" type="line"/>
      <point x="233" y="44" type="line"/>
      <point x="206" y="44" type="line"/>
      <point x="206" y="89" type="line"/>
      <point x="157" y="89" type="line"/>
    </contour>
    <contour>
      <point x="167" y="44" type="line"/>
      <point x="167" y="79" type="line"/>
      <point x="199" y="79" type="line"/>
      <point x="199" y="44" type="line"/>
    </contour>
    <contour>
      <point x="84" y="133" type="line"/>
      <point x="91" y="133" type="line"/>
      <point x="91" y="160" type="line"/>
      <point x="106" y="160" type="line"/>
      <point x="106" y="186" type="line"/>
      <point x="118" y="186" type="line"/>
      <point x="118" y="212" type="line"/>
      <point x="132" y="212" type="line"/>
      <point x="132" y="221" type="line"/>
      <point x="110" y="221" type="line"/>
      <point x="110" y="195" type="line"/>
      <point x="96" y="195" type="line"/>
      <point x="96" y="168" type="line"/>
      <point x="79" y="168" type="line"/>
      <point x="79" y="195" type="line"/>
      <point x="65" y="195" type="line"/>
      <point x="65" y="221" type="line"/>
      <point x="43" y="221" type="line"/>
      <point x="43" y="212" type="line"/>
      <point x="56" y="212" type="line"/>
      <point x="56" y="186" type="line"/>
      <point x="69" y="186" type="line"/>
      <point x="69" y="160" type="line"/>
      <point x="84" y="160" type="line"/>
    </contour>
    <contour>
      <point x="150" y="133" type="line"/>
      <point x="211" y="133" type="line"/>
      <point x="211" y="142" type="line"/>
      <point x="157" y="142" type="line"/>
      <point x="157" y="173" type="line"/>
      <point x="194" y="173" type="line"/>
      <point x="194" y="182" type="line"/>
      <point x="157" y="182" type="line"/>
      <point x="157" y="212" type="line"/>
      <point x="211" y="212" type="line"/>
      <point x="211" y="221" type="line"/>
      <point x="150" y="221" type="line"/>
    </contour>
    <contour>
      <point x="47" y="265" type="line"/>
      <point x="106" y="265" type="line"/>
      <point x="106" y="275" type="line"/>
      <point x="56" y="275" type="line"/>
      <point x="56" y="345" type="line"/>
      <point x="106" y="345" type="line"/>
      <point x="106" y="354" type="line"/>
      <point x="47" y="354" type="line"/>
    </contour>
    <contour>
      <point x="238" y="133" type="line"/>
      <point x="299" y="133" type="line"/>
      <point x="299" y="142" type="line"/>
      <point x="246" y="142" type="line"/>
      <point x="246" y="221" type="line"/>
      <point x="238" y="221" type="line"/>
    </contour>
    <contour>
      <point x="128" y="265" type="line"/>
      <point x="194" y="265" type="line"/>
      <point x="194" y="354" type="line"/>
      <point x="128" y="354" type="line"/>
    </contour>
    <contour>
      <point x="136" y="275" type="line"/>
      <point x="136" y="345" type="line"/>
      <point x="185" y="345" type="line"/>
      <point x="185" y="275" type="line"/>
    </contour>
    <contour>
      <point x="326" y="133" type="line"/>
      <point x="336" y="133" type="line"/>
      <point x="336" y="160" type="line"/>
      <point x="348" y="160" type="line"/>
      <point x="348" y="186" type="line"/>
      <point x="362" y="186" type="line"/>
      <point x="362" y="212" type="line"/>
      <point x="375" y="212" type="line"/>
      <point x="375" y="221" type="line"/>
      <point x="353" y="221" type="line"/>
      <point x="353" y="195" type="line"/>
      <point x="341" y="195" type="line"/>
      <point x="341" y="168" type="line"/>
      <point x="322" y="168" type="line"/>
      <point x="322" y="195" type="line"/>
      <point x="309" y="195" type="line"/>
      <point x="309" y="221" type="line"/>
      <point x="287" y="221" type="line"/>
      <point x="287" y="212" type="line"/>
      <point x="299" y="212" type="line"/>
      <point x="299" y="186" type="line"/>
      <point x="314" y="186" type="line"/>
      <point x="314" y="160" type="line"/>
      <point x="326" y="160" type="line"/>
    </contour>
    <contour>
      <point x="47" y="398" type="line"/>
      <point x="56" y="398" type="line"/>
      <point x="56" y="438" type="line"/>
      <point x="91" y="438" type="line"/>
      <point x="91" y="447" type="line"/>
      <point x="56" y="447" type="line"/>
      <point x="56" y="479" type="line"/>
      <point x="110" y="479" type="line"/>
      <point x="110" y="487" type="line"/>
      <point x="47" y="487" type="line"/>
    </contour>
    <contour>
      <point x="221" y="265" type="line"/>
      <point x="228" y="265" type="line"/>
      <point x="228" y="345" type="line"/>
      <point x="238" y="345" type="line"/>
      <point x="238" y="319" type="line"/>
      <point x="252" y="319" type="line"/>
      <point x="252" y="293" type="line"/>
      <point x="264" y="293" type="line"/>
      <point x="264" y="265" type="line"/>
      <point x="290" y="265" type="line"/>
      <point x="290" y="354" type="line"/>
      <point x="282" y="354" type="line"/>
      <point x="282" y="275" type="line"/>
      <point x="274" y="275" type="line"/>
      <point x="274" y="301" type="line"/>
      <point x="260" y="301" type="line"/>
      <point x="260" y="327" type="line"/>
      <point x="246" y="327" type="line"/>
      <point x="246" y="354" type="line"/>
      <point x="221" y="354" type="line"/>
    </contour>
    <contour>
      <point x="393" y="133" type="line"/>
      <point x="455" y="133" type="line"/>
      <point x="455" y="142" type="line"/>
      <point x="402" y="142" type="line"/>
      <point x="402" y="173" type="line"/>
      <point x="437" y="173" type="line"/>
      <point x="437" y="182" type="line"/>
      <point x="402" y="182" type="line"/>
      <point x="402" y="212" type="line"/>
      <point x="455" y="212" type="line"/>
      <point x="455" y="221" type="line"/>
      <point x="393" y="221" type="line"/>
    </contour>
    <contour>
      <point x="128" y="398" type="line"/>
      <point x="194" y="398" type="line"/>
      <point x="194" y="487" type="line"/>
      <point x="128" y="487" type="line"/>
    </contour>
    <contour>
      <point x="136" y="408" type="line"/>
      <point x="136" y="479" type="line"/>
      <point x="185" y="479" type="line"/>
      <point x="185" y="408" type="line"/>
    </contour>
    <contour>
      <point x="336" y="265" type="line"/>
      <point x="344" y="265" type="line"/>
      <point x="344" y="345" type="line"/>
      <point x="375" y="345" type="line"/>
      <point x="375" y="354" type="line"/>
      <point x="305" y="354" type="line"/>
      <point x="305" y="345" type="line"/>
      <point x="336" y="345" type="line"/>
    </contour>
    <contour>
      <point x="47" y="531" type="line"/>
      <point x="128" y="531" type="line"/>
      <point x="128" y="620" type="line"/>
      <point x="118" y="620" type="line"/>
      <point x="118" y="540" type="line"/>
      <point x="91" y="540" type="line"/>
      <point x="91" y="589" type="line"/>
      <point x="84" y="589" type="line"/>
      <point x="84" y="540" type="line"/>
      <point x="56" y="540" type="line"/>
      <point x="56" y="620" type="line"/>
      <point x="47" y="620" type="line"/>
    </contour>
    <contour>
      <point x="504" y="133" type="line"/>
      <point x="513" y="133" type="line"/>
      <point x="513" y="212" type="line"/>
      <point x="543" y="212" type="line"/>
      <point x="543" y="221" type="line"/>
      <point x="473" y="221" type="line"/>
      <point x="473" y="212" type="line"/>
      <point x="504" y="212" type="line"/>
    </contour>
    <contour>
      <point x="221" y="398" type="line"/>
      <point x="228" y="398" type="line"/>
      <point x="228" y="435" type="line"/>
      <point x="287" y="435" type="line"/>
      <point x="287" y="398" type="line"/>
      <point x="295" y="398" type="line"/>
      <point x="295" y="443" type="line"/>
      <point x="270" y="443" type="line"/>
      <point x="270" y="487" type="line"/>
      <point x="221" y="487" type="line"/>
    </contour>
    <contour>
      <point x="228" y="443" type="line"/>
      <point x="228" y="479" type="line"/>
      <point x="260" y="479" type="line"/>
      <point x="260" y="443" type="line"/>
    </contour>
    <contour>
      <point x="375" y="265" type="line"/>
      <point x="384" y="265" type="line"/>
      <point x="384" y="293" type="line"/>
      <point x="451" y="293" type="line"/>
      <point x="451" y="265" type="line"/>
      <point x="460" y="265" type="line"/>
      <point x="460" y="301" type="line"/>
      <point x="446" y="301" type="line"/>
      <point x="446" y="327" type="line"/>
      <point x="433" y="327" type="line"/>
      <point x="433" y="354" type="line"/>
      <point x="402" y="354" type="line"/>
      <point x="402" y="327" type="line"/>
      <point x="388" y="327" type="line"/>
      <point x="388" y="301" type="line"/>
      <point x="375" y="301" type="line"/>
    </contour>
    <contour>
      <point x="397" y="301" type="line"/>
      <point x="397" y="319" type="line"/>
      <point x="410" y="319" type="line"/>
      <point x="410" y="345" type="line"/>
      <point x="424" y="345" type="line"/>
      <point x="424" y="319" type="line"/>
      <point x="437" y="319" type="line"/>
      <point x="437" y="301" type="line"/>
    </contour>
    <contour>
      <point x="47" y="664" type="line"/>
      <point x="56" y="664" type="line"/>
      <point x="56" y="752" type="line"/>
      <point x="47" y="752" type="line"/>
    </contour>
    <contour>
      <point x="150" y="531" type="line"/>
      <point x="157" y="531" type="line"/>
      <point x="157" y="558" type="line"/>
      <point x="224" y="558" type="line"/>
      <point x="224" y="531" type="line"/>
      <point x="233" y="531" type="line"/>
      <point x="233" y="567" type="line"/>
      <point x="221" y="567" type="line"/>
      <point x="221" y="594" type="line"/>
      <point x="206" y="594" type="line"/>
      <point x="206" y="620" type="line"/>
      <point x="175" y="620" type="line"/>
      <point x="175" y="594" type="line"/>
      <point x="163" y="594" type="line"/>
      <point x="163" y="567" type="line"/>
      <point x="150" y="567" type="line"/>
    </contour>
    <contour>
      <point x="593" y="133" type="line"/>
      <point x="601" y="133" type="line"/>
      <point x="601" y="173" type="line"/>
      <point x="633" y="173" type="line"/>
      <point x="633" y="221" type="line"/>
      <point x="624" y="221" type="line"/>
      <point x="624" y="182" type="line"/>
      <point x="571" y="182" type="line"/>
      <point x="571" y="221" type="line"/>
      <point x="561" y="221" type="line"/>
      <point x="561" y="173" type="line"/>
      <point x="593" y="173" type="line"/>
    </contour>
    <contour>
      <point x="172" y="567" type="line"/>
      <point x="172" y="585" type="line"/>
      <point x="185" y="585" type="line"/>
      <point x="185" y="612" type="line"/>
      <point x="199" y="612" type="line"/>
      <point x="199" y="585" type="line"/>
      <point x="211" y="585" type="line"/>
      <point x="211" y="567" type="line"/>
    </contour>
    <contour>
      <point x="317" y="398" type="line"/>
      <point x="326" y="398" type="line"/>
      <point x="326" y="438" type="line"/>
      <point x="341" y="438" type="line"/>
      <point x="341" y="426" type="line"/>
      <point x="362" y="426" type="line"/>
      <point x="362" y="398" type="line"/>
      <point x="384" y="398" type="line"/>
      <point x="384" y="408" type="line"/>
      <point x="371" y="408" type="line"/>
      <point x="371" y="435" type="line"/>
      <point x="348" y="435" type="line"/>
      <point x="348" y="452" type="line"/>
      <point x="371" y="452" type="line"/>
      <point x="371" y="479" type="line"/>
      <point x="384" y="479" type="line"/>
      <point x="384" y="487" type="line"/>
      <point x="362" y="487" type="line"/>
      <point x="362" y="461" type="line"/>
      <point x="341" y="461" type="line"/>
      <point x="341" y="447" type="line"/>
      <point x="326" y="447" type="line"/>
      <point x="326" y="487" type="line"/>
      <point x="317" y="487" type="line"/>
    </contour>
    <contour>
      <point x="476" y="265" type="line"/>
      <point x="535" y="265" type="line"/>
      <point x="535" y="275" type="line"/>
      <point x="486" y="275" type="line"/>
      <point x="486" y="345" type="line"/>
      <point x="535" y="345" type="line"/>
      <point x="535" y="354" type="line"/>
      <point x="476" y="354" type="line"/>
    </contour>
    <contour>
      <point x="84" y="664" type="line"/>
      <point x="91" y="664" type="line"/>
      <point x="91" y="704" type="line"/>
      <point x="128" y="704" type="line"/>
      <point x="128" y="714" type="line"/>
      <point x="91" y="714" type="line"/>
      <point x="91" y="745" type="line"/>
      <point x="145" y="745" type="line"/>
      <point x="145" y="752" type="line"/>
      <point x="84" y="752" type="line"/>
    </contour>
    <contour>
      <point x="649" y="133" type="line"/>
      <point x="659" y="133" type="line"/>
      <point x="659" y="212" type="line"/>
      <point x="667" y="212" type="line"/>
      <point x="667" y="186" type="line"/>
      <point x="681" y="186" type="line"/>
      <point x="681" y="160" type="line"/>
      <point x="695" y="160" type="line"/>
      <point x="695" y="133" type="line"/>
      <point x="721" y="133" type="line"/>
      <point x="721" y="221" type="line"/>
      <point x="713" y="221" type="line"/>
      <point x="713" y="142" type="line"/>
      <point x="703" y="142" type="line"/>
      <point x="703" y="168" type="line"/>
      <point x="690" y="168" type="line"/>
      <point x="690" y="195" type="line"/>
      <point x="677" y="195" type="line"/>
      <point x="677" y="221" type="line"/>
      <point x="649" y="221" type="line"/>
    </contour>
    <contour>
      <point x="256" y="531" type="line"/>
      <point x="264" y="531" type="line"/>
      <point x="264" y="612" type="line"/>
      <point x="274" y="612" type="line"/>
      <point x="274" y="585" type="line"/>
      <point x="287" y="585" type="line"/>
      <point x="287" y="558" type="line"/>
      <point x="299" y="558" type="line"/>
      <point x="299" y="531" type="line"/>
      <point x="326" y="531" type="line"/>
      <point x="326" y="620" type="line"/>
      <point x="317" y="620" type="line"/>
      <point x="317" y="540" type="line"/>
      <point x="309" y="540" type="line"/>
      <point x="309" y="567" type="line"/>
      <point x="295" y="567" type="line"/>
      <point x="295" y="594" type="line"/>
      <point x="282" y="594" type="line"/>
      <point x="282" y="620" type="line"/>
      <point x="256" y="620" type="line"/>
    </contour>
    <contour>
      <point x="583" y="265" type="line"/>
      <point x="593" y="265" type="line"/>
      <point x="593" y="345" type="line"/>
      <point x="624" y="345" type="line"/>
      <point x="624" y="354" type="line"/>
      <point x="553" y="354" type="line"/>
      <point x="553" y="345" type="line"/>
      <point x="583" y="345" type="line"/>
    </contour>
    <contour>
      <point x="204" y="664" type="line"/>
      <point x="211" y="664" type="line"/>
      <point x="211" y="704" type="line"/>
      <point x="242" y="704" type="line"/>
      <point x="242" y="752" type="line"/>
      <point x="233" y="752" type="line"/>
      <point x="233" y="714" type="line"/>
      <point x="180" y="714" type="line"/>
      <point x="180" y="752" type="line"/>
      <point x="172" y="752" type="line"/>
      <point x="172" y="704" type="line"/>
      <point x="204" y="704" type="line"/>
    </contour>
    <contour>
      <point x="441" y="398" type="line"/>
      <point x="451" y="398" type="line"/>
      <point x="451" y="479" type="line"/>
      <point x="460" y="479" type="line"/>
      <point x="460" y="452" type="line"/>
      <point x="473" y="452" type="line"/>
      <point x="473" y="426" type="line"/>
      <point x="486" y="426" type="line"/>
      <point x="486" y="398" type="line"/>
      <point x="494" y="398" type="line"/>
      <point x="494" y="426" type="line"/>
      <point x="508" y="426" type="line"/>
      <point x="508" y="452" type="line"/>
      <point x="521" y="452" type="line"/>
      <point x="521" y="479" type="line"/>
      <point x="529" y="479" type="line"/>
      <point x="529" y="398" type="line"/>
      <point x="539" y="398" type="line"/>
      <point x="539" y="487" type="line"/>
      <point x="513" y="487" type="line"/>
      <point x="513" y="461" type="line"/>
      <point x="499" y="461" type="line"/>
      <point x="499" y="435" type="line"/>
      <point x="482" y="435" type="line"/>
      <point x="482" y="461" type="line"/>
      <point x="469" y="461" type="line"/>
      <point x="469" y="487" type="line"/>
      <point x="441" y="487" type="line"/>
    </contour>
    <contour>
      <point x="743" y="133" type="line"/>
      <point x="805" y="133" type="line"/>
      <point x="805" y="142" type="line"/>
      <point x="752" y="142" type="line"/>
      <point x="752" y="173" type="line"/>
      <point x="787" y="173" type="line"/>
      <point x="787" y="182" type="line"/>
      <point x="752" y="182" type="line"/>
      <point x="752" y="212" type="line"/>
      <point x="805" y="212" type="line"/>
      <point x="805" y="221" type="line"/>
      <point x="743" y="221" type="line"/>
    </contour>
    <contour>
      <point x="375" y="531" type="line"/>
      <point x="384" y="531" type="line"/>
      <point x="384" y="612" type="line"/>
      <point x="415" y="612" type="line"/>
      <point x="415" y="620" type="line"/>
      <point x="344" y="620" type="line"/>
      <point x="344" y="612" type="line"/>
      <point x="375" y="612" type="line"/>
    </contour>
    <contour>
      <point x="270" y="664" type="line"/>
      <point x="336" y="664" type="line"/>
      <point x="336" y="752" type="line"/>
      <point x="270" y="752" type="line"/>
    </contour>
    <contour>
      <point x="277" y="674" type="line"/>
      <point x="277" y="745" type="line"/>
      <point x="326" y="745" type="line"/>
      <point x="326" y="674" type="line"/>
    </contour>
    <contour>
      <point x="571" y="398" type="line"/>
      <point x="633" y="398" type="line"/>
      <point x="633" y="408" type="line"/>
      <point x="579" y="408" type="line"/>
      <point x="579" y="438" type="line"/>
      <point x="614" y="438" type="line"/>
      <point x="614" y="447" type="line"/>
      <point x="579" y="447" type="line"/>
      <point x="579" y="479" type="line"/>
      <point x="633" y="479" type="line"/>
      <point x="633" y="487" type="line"/>
      <point x="571" y="487" type="line"/>
    </contour>
    <contour>
      <point x="641" y="265" type="line"/>
      <point x="854" y="265" type="line"/>
      <point x="854" y="354" type="line"/>
      <point x="641" y="354" type="line"/>
    </contour>
    <contour>
      <point x="451" y="531" type="line"/>
      <point x="460" y="531" type="line"/>
      <point x="460" y="612" type="line"/>
      <point x="469" y="612" type="line"/>
      <point x="469" y="585" type="line"/>
      <point x="482" y="585" type="line"/>
      <point x="482" y="558" type="line"/>
      <point x="494" y="558" type="line"/>
      <point x="494" y="531" type="line"/>
      <point x="504" y="531" type="line"/>
      <point x="504" y="558" type="line"/>
      <point x="517" y="558" type="line"/>
      <point x="517" y="585" type="line"/>
      <point x="529" y="585" type="line"/>
      <point x="529" y="612" type="line"/>
      <point x="539" y="612" type="line"/>
      <point x="539" y="531" type="line"/>
      <point x="547" y="531" type="line"/>
      <point x="547" y="620" type="line"/>
      <point x="521" y="620" type="line"/>
      <point x="521" y="594" type="line"/>
      <point x="508" y="594" type="line"/>
      <point x="508" y="567" type="line"/>
      <point x="491" y="567" type="line"/>
      <point x="491" y="594" type="line"/>
      <point x="476" y="594" type="line"/>
      <point x="476" y="620" type="line"/>
      <point x="451" y="620" type="line"/>
    </contour>
    <contour>
      <point x="362" y="664" type="line"/>
      <point x="433" y="664" type="line"/>
      <point x="433" y="752" type="line"/>
      <point x="424" y="752" type="line"/>
      <point x="424" y="674" type="line"/>
      <point x="371" y="674" type="line"/>
      <point x="371" y="752" type="line"/>
      <point x="362" y="752" type="line"/>
    </contour>
    <contour>
      <point x="685" y="398" type="line"/>
      <point x="752" y="398" type="line"/>
      <point x="752" y="487" type="line"/>
      <point x="685" y="487" type="line"/>
    </contour>
    <contour>
      <point x="695" y="408" type="line"/>
      <point x="695" y="479" type="line"/>
      <point x="743" y="479" type="line"/>
      <point x="743" y="408" type="line"/>
    </contour>
    <contour>
      <point x="575" y="531" type="line"/>
      <point x="641" y="531" type="line"/>
      <point x="641" y="620" type="line"/>
      <point x="575" y="620" type="line"/>
    </contour>
    <contour>
      <point x="583" y="540" type="line"/>
      <point x="583" y="612" type="line"/>
      <point x="633" y="612" type="line"/>
      <point x="633" y="540" type="line"/>
    </contour>
    <contour>
      <point x="779" y="398" type="line"/>
      <point x="787" y="398" type="line"/>
      <point x="787" y="435" type="line"/>
      <point x="845" y="435" type="line"/>
      <point x="845" y="398" type="line"/>
      <point x="854" y="398" type="line"/>
      <point x="854" y="443" type="line"/>
      <point x="827" y="443" type="line"/>
      <point x="827" y="487" type="line"/>
      <point x="779" y="487" type="line"/>
    </contour>
    <contour>
      <point x="787" y="443" type="line"/>
      <point x="787" y="479" type="line"/>
      <point x="818" y="479" type="line"/>
      <point x="818" y="443" type="line"/>
    </contour>
    <contour>
      <point x="663" y="531" type="line"/>
      <point x="671" y="531" type="line"/>
      <point x="671" y="567" type="line"/>
      <point x="729" y="567" type="line"/>
      <point x="729" y="531" type="line"/>
      <point x="738" y="531" type="line"/>
      <point x="738" y="576" type="line"/>
      <point x="713" y="576" type="line"/>
      <point x="713" y="620" type="line"/>
      <point x="663" y="620" type="line"/>
    </contour>
    <contour>
      <point x="671" y="576" type="line"/>
      <point x="671" y="612" type="line"/>
      <point x="703" y="612" type="line"/>
      <point x="703" y="576" type="line"/>
    </contour>
    <contour>
      <point x="756" y="531" type="line"/>
      <point x="818" y="531" type="line"/>
      <point x="818" y="540" type="line"/>
      <point x="765" y="540" type="line"/>
      <point x="765" y="572" type="line"/>
      <point x="801" y="572" type="line"/>
      <point x="801" y="581" type="line"/>
      <point x="765" y="581" type="line"/>
      <point x="765" y="612" type="line"/>
      <point x="818" y="612" type="line"/>
      <point x="818" y="620" type="line"/>
      <point x="756" y="620" type="line"/>
    </contour>
    <contour>
      <point x="460" y="664" type="line"/>
      <point x="854" y="664" type="line"/>
      <point x="854" y="752" type="line"/>
      <point x="460" y="752" type="line"/>
    </contour>
    <contour>
      <point x="840" y="518" type="line"/>
      <point x="848" y="518" type="line"/>
      <point x="848" y="545" type="line"/>
      <point x="836" y="545" type="line"/>
      <point x="836" y="531" type="line"/>
      <point x="840" y="531" type="line"/>
    </contour>
  </outline>
</glyph>
<glyph name="acutecomb.case" format="2">
  <advance width="318"/>
  <anchor x="149" y="512" name="_top"/>
  <anchor x="149" y="689" name="top"/>
  <outline>
    <contour>
      <point x="54" y="585" type="line"/>
      <point x="249" y="605" type="line"/>
      <point x="244" y="641" type="line"/>
      <point x="50" y="617" type="line"/>
    </contour>
  </outline>
</glyph>
<glyph name="brevecomb.case" format="2">
  <advance width="300"/>
  <anchor x="156" y="513" name="_top"/>
  <outline>
    <contour>
      <point x="156" y="553" type="curve" smooth="yes"/>
      <point x="225" y="553"/>
      <point x="272" y="598"/>
      <point x="272" y="658" type="curve" smooth="yes"/>
      <point x="272" y="661" type="line"/>
      <point x="233" y="661" type="line"/>
      <point x="233" y="658" type="line" smooth="yes"/>
      <point x="233" y="619"/>
      <point x="204" y="592"/>
      <point x="156" y="592" type="curve" smooth="yes"/>
      <point x="107" y="592"/>
      <point x="78" y="618"/>
      <point x="78" y="658" type="curve" smooth="yes"/>
      <point x="78" y="661" type="line"/>
      <point x="39" y="661" type="line"/>
      <point x="39" y="658" type="line" smooth="yes"/>
      <point x="39" y="599"/>
      <point x="86" y="553"/>
    </contour>
  </outline>
</glyph>
<glyph name="caroncomb.alt" format="2">
  <advance width="174"/>
  <anchor x="30" y="800" name="_topright"/>
  <outline>
    <contour>
      <point x="50" y="617" type="line"/>
      <point x="85" y="617" type="line"/>
      <point x="124" y="800" type="line"/>
      <point x="80" y="800" type="line"/>
    </contour>
  </outline>
</glyph>
<glyph name="circumflexcomb.case" format="2">
  <advance width="336"/>
  <anchor x="168" y="513" name="_top"/>
  <anchor x="168" y="690" name="top"/>
  <outline>
    <contour>
      <point x="63" y="568" type="line"/>
      <point x="168" y="603" type="line"/>
      <point x="273" y="568" type="line"/>
      <point x="286" y="602" type="line"/>
      <point x="168" y="642" type="line"/>
      <point x="50" y="602" type="line"/>
    </contour>
  </outline>
</glyph>
<glyph name="dieresiscomb.case" format="2">
  <advance width="344"/>
  <anchor x="172" y="513" name="_top"/>
  <anchor x="172" y="701" name="top"/>
  <outline>
    <contour>
      <point x="253" y="589" type="curve" smooth="yes"/>
      <point x="275" y="589"/>
      <point x="294" y="607"/>
      <point x="294" y="631" type="curve" smooth="yes"/>
      <point x="294" y="653"/>
      <point x="275" y="671"/>
      <point x="253" y="671" type="curve" smooth="yes"/>
      <point x="229" y="671"/>
      <point x="210" y="653"/>
      <point x="210" y="631" type="curve" smooth="yes"/>
      <point x="210" y="607"/>
      <point x="229" y="589"/>
    </contour>
    <contour>
      <point x="93" y="589" type="curve" smooth="yes"/>
      <point x="115" y="589"/>
      <point x="134" y="607"/>
      <point x="134" y="631" type="curve" smooth="yes"/>
      <point x="134" y="653"/>
      <point x="115" y="671"/>
      <point x="93" y="671" type="curve" smooth="yes"/>
      <point x="69" y="671"/>
      <point x="50" y="653"/>
      <point x="50" y="631" type="curve" smooth="yes"/>
      <point x="50" y="607"/>
      <point x="69" y="589"/>
    </contour>
  </outline>
</glyph>
<glyph name="dieresiscomb.narrow" format="2">
  <advance width="304"/>
  <anchor x="152" y="513" name="_top"/>
  <anchor x="152" y="701" name="top"/>
  <outline>
    <contour>
      <point x="213" y="619" type="curve" smooth="yes"/>
      <point x="235" y="619"/>
      <point x="254" y="637"/>
      <point x="254" y="661" type="curve" smooth="yes"/>
      <point x="254" y="683"/>
      <point x="235" y="701"/>
      <point x="213" y="701" type="curve" smooth="yes"/>
      <point x="189" y="701"/>
      <point x="170" y="683"/>
      <point x="170" y="661" type="curve" smooth="yes"/>
      <point x="170" y="637"/>
      <point x="189" y="619"/>
    </contour>
    <contour>
      <point x="93" y="619" type="curve" smooth="yes"/>
      <point x="115" y="619"/>
      <point x="134" y="637"/>
      <point x="134" y="661" type="curve" smooth="yes"/>
      <point x="134" y="683"/>
      <point x="115" y="701"/>
      <point x="93" y="701" type="curve" smooth="yes"/>
      <point x="69" y="701"/>
      <point x="50" y="683"/>
      <point x="50" y="661" type="curve" smooth="yes"/>
      <point x="50" y="637"/>
      <point x="69" y="619"/>
    </contour>
  </outline>
</glyph>
<glyph name="fi.liga" format="2">
  <advance width="630"/>
  <anchor x="325" y="0" name="caret_1"/>
  <outline>
    <contour>
      <point x="496" y="0" type="line"/>
      <point x="536" y="0" type="line"/>
      <point x="536" y="513" type="line"/>
      <point x="40" y="513" type="line"/>
      <point x="40" y="473" type="line"/>
      <point x="496" y="473" type="line"/>
    </contour>
    <contour>
      <point x="148" y="0" type="line"/>
      <point x="188" y="0" type="line"/>
      <point x="188" y="523" type="line" smooth="yes"/>
      <point x="188" y="602"/>
      <point x="253" y="667"/>
      <point x="332" y="667" type="curve" smooth="yes"/>
      <point x="380" y="667" type="line"/>
      <point x="380" y="706" type="line"/>
      <point x="331" y="706" type="line" smooth="yes"/>
      <point x="231" y="706"/>
      <point x="149" y="624"/>
      <point x="149" y="523" type="curve" smooth="yes"/>
    </contour>
    <contour>
      <point x="517" y="639" type="curve" smooth="yes"/>
      <point x="539" y="639"/>
      <point x="558" y="657"/>
      <point x="558" y="681" type="curve" smooth="yes"/>
      <point x="558" y="703"/>
      <point x="539" y="721"/>
      <point x="517" y="721" type="curve" smooth="yes"/>
      <point x="493" y="721"/>
      <point x="474" y="703"/>
      <point x="474" y="681" type="curve" smooth="yes"/>
      <point x="474" y="657"/>
      <point x="493" y="639"/>
    </contour>
  </outline>
</glyph>
<glyph name="five.ss01" format="2">
  <advance width="579"/>
  <outline>
    <contour>
      <point x="316" y="-10" type="curve" smooth="yes"/>
      <point x="437" y="-10"/>
      <point x="529" y="82"/>
      <point x="529" y="204" type="curve" smooth="yes"/>
      <point x="529" y="326"/>
      <point x="437" y="419"/>
      <point x="316" y="419" type="curve" smooth="yes"/>
      <point x="176" y="419" type="line"/>
      <point x="176" y="666" type="line"/>
      <point x="497" y="666" type="line"/>
      <point x="497" y="706" type="line"/>
      <point x="136" y="706" type="line"/>
      <point x="136" y="378" type="line"/>
      <point x="316" y="378" type="line" smooth="yes"/>
      <point x="413" y="378"/>
      <point x="490" y="302"/>
      <point x="490" y="204" type="curve" smooth="yes"/>
      <point x="490" y="106"/>
      <point x="413" y="30"/>
      <point x="316" y="30" type="curve" smooth="yes"/>
      <point x="218" y="30"/>
      <point x="141" y="106"/>
      <point x="141" y="204" type="curve" smooth="yes"/>
      <point x="141" y="207" type="line"/>
      <point x="100" y="207" type="line"/>
      <point x="100" y="204" type="line" smooth="yes"/>
      <point x="100" y="82"/>
      <point x="193" y="-10"/>
    </contour>
  </outline>
</glyph>
<glyph name="four.ss01" format="2">
  <advance width="543"/>
  <outline>
    <contour>
      <point x="403" y="0" type="line"/>
      <point x="443" y="0" type="line"/>
      <point x="443" y="513" type="line"/>
      <point x="403" y="513" type="line"/>
      <point x="403" y="196" type="line"/>
      <point x="140" y="196" type="line"/>
      <point x="140" y="706" type="line"/>
      <point x="100" y="706" type="line"/>
      <point x="100" y="156" type="line"/>
      <point x="403" y="156" type="line"/>
    </contour>
  </outline>
</glyph>
<glyph name="m.ss02" format="2">
  <advance width="830"/>
  <anchor x="308" y="0" name="bottom"/>
  <outline>
    <contour>
      <point x="395" y="0" type="line"/>
      <point x="435" y="0" type="line"/>
      <point x="435" y="340" type="line" smooth="yes"/>
      <point x="435" y="415"/>
      <point x="493" y="473"/>
      <point x="568" y="473" type="curve" smooth="yes"/>
      <point x="644" y="473"/>
      <point x="700" y="415"/>
      <point x="700" y="340" type="curve" smooth="yes"/>
      <point x="700" y="0" type="line"/>
      <point x="740" y="0" type="line"/>
      <point x="740" y="342" type="line" smooth="yes"/>
      <point x="740" y="440"/>
      <point x="665" y="513"/>
      <point x="568" y="513" type="curve" smooth="yes"/>
      <point x="471" y="513"/>
      <point x="395" y="440"/>
      <point x="395" y="342" type="curve" smooth="yes"/>
    </contour>
    <contour>
      <point x="90" y="0" type="line"/>
      <point x="130" y="0" type="line"/>
      <point x="130" y="362" type="line"/>
      <point x="125" y="362" type="line"/>
      <point x="125" y="513" type="line"/>
      <point x="90" y="513" type="line"/>
    </contour>
    <contour>
      <point x="90" y="0" type="line"/>
      <point x="130" y="0" type="line"/>
      <point x="130" y="340" type="line" smooth="yes"/>
      <point x="130" y="415"/>
      <point x="188" y="473"/>
      <point x="263" y="473" type="curve" smooth="yes"/>
      <point x="339" y="473"/>
      <point x="395" y="415"/>
      <point x="395" y="340" type="curve" smooth="yes"/>
      <point x="395" y="0" type="line"/>
      <point x="435" y="0" type="line"/>
      <point x="435" y="342" type="line" smooth="yes"/>
      <point x="435" y="440"/>
      <point x="360" y="513"/>
      <point x="263" y="513" type="curve" smooth="yes"/>
      <point x="166" y="513"/>
      <point x="90" y="440"/>
      <point x="90" y="342" type="curve" smooth="yes"/>
    </contour>
  </outline>
</glyph>
<glyph name="macroncomb.case" format="2">
  <advance width="358"/>
  <anchor x="179" y="513" name="_top"/>
  <anchor x="179" y="688" name="top"/>
  <outline>
    <contour>
      <point x="80" y="590" type="line"/>
      <point x="278" y="590" type="line"/>
      <point x="278" y="628" type="line"/>
      <point x="80" y="628" type="line"/>
    </contour>
  </outline>
</glyph>
<glyph name="macroncomb.narrow" format="2">
  <advance width="278"/>
  <anchor x="139" y="513" name="_top"/>
  <anchor x="139" y="688" name="top"/>
  <outline>
    <contour>
      <point x="50" y="655" type="line"/>
      <point x="228" y="655" type="line"/>
      <point x="228" y="688" type="line"/>
      <point x="50" y="688" type="line"/>
    </contour>
  </outline>
</glyph>
<glyph name="n.ss02" format="2">
  <advance width="525"/>
  <anchor x="263" y="0" name="bottom"/>
  <anchor x="263" y="513" name="top"/>
  <outline>
    <contour>
      <point x="90" y="0" type="line"/>
      <point x="130" y="0" type="line"/>
      <point x="130" y="350" type="line" smooth="yes"/>
      <point x="130" y="425"/>
      <point x="188" y="483"/>
      <point x="263" y="483" type="curve" smooth="yes"/>
      <point x="339" y="483"/>
      <point x="395" y="425"/>
      <point x="395" y="350" type="curve" smooth="yes"/>
      <point x="395" y="0" type="line"/>
      <point x="435" y="0" type="line"/>
      <point x="435" y="352" type="line" smooth="yes"/>
      <point x="435" y="450"/>
      <point x="360" y="523"/>
      <point x="263" y="523" type="curve" smooth="yes"/>
      <point x="166" y="523"/>
      <point x="90" y="450"/>
      <point x="90" y="352" type="curve" smooth="yes"/>
    </contour>
    <contour>
      <point x="90" y="0" type="line"/>
      <point x="130" y="0" type="line"/>
      <point x="130" y="362" type="line"/>
      <point x="125" y="401" type="line"/>
      <point x="125" y="513" type="line"/>
      <point x="90" y="513" type="line"/>
    </contour>
  </outline>
</glyph>
<glyph name="one.ss01" format="2">
  <advance width="419"/>
  <outline>
    <contour>
      <point x="197" y="0" type="line"/>
      <point x="237" y="0" type="line"/>
      <point x="237" y="726" type="line"/>
      <point x="230" y="726" type="line"/>
      <point x="70" y="615" type="line"/>
      <point x="70" y="566" type="line"/>
      <point x="197" y="654" type="line"/>
    </contour>
    <contour>
      <point x="40" y="0" type="line"/>
      <point x="399" y="0" type="line"/>
      <point x="399" y="40" type="line"/>
      <point x="40" y="40" type="line"/>
    </contour>
  </outline>
</glyph>
<glyph name="seven.ss01" format="2">
  <advance width="415"/>
  <outline>
    <contour>
      <point x="62" y="0" type="line"/>
      <point x="105" y="0" type="line"/>
      <point x="385" y="706" type="line"/>
      <point x="20" y="706" type="line"/>
      <point x="20" y="666" type="line"/>
      <point x="327" y="666" type="line"/>
    </contour>
  </outline>
</glyph>
<glyph name="six.ss01" format="2">
  <advance width="589"/>
  <outline>
    <contour>
      <point x="296" y="-10" type="curve" smooth="yes"/>
      <point x="417" y="-10"/>
      <point x="509" y="82"/>
      <point x="509" y="204" type="curve" smooth="yes"/>
      <point x="509" y="326"/>
      <point x="417" y="419"/>
      <point x="296" y="419" type="curve" smooth="yes"/>
      <point x="222" y="419"/>
      <point x="159" y="388"/>
      <point x="119" y="331" type="curve"/>
      <point x="119" y="503" type="line" smooth="yes"/>
      <point x="119" y="601"/>
      <point x="196" y="677"/>
      <point x="293" y="677" type="curve" smooth="yes"/>
      <point x="391" y="677"/>
      <point x="468" y="601"/>
      <point x="468" y="503" type="curve" smooth="yes"/>
      <point x="468" y="480" type="line"/>
      <point x="509" y="480" type="line"/>
      <point x="509" y="503" type="line" smooth="yes"/>
      <point x="509" y="625"/>
      <point x="416" y="717"/>
      <point x="293" y="717" type="curve" smooth="yes"/>
      <point x="172" y="717"/>
      <point x="80" y="626"/>
      <point x="80" y="504" type="curve" smooth="yes"/>
      <point x="80" y="204" type="line" smooth="yes"/>
      <point x="80" y="84"/>
      <point x="169" y="-10"/>
    </contour>
    <contour>
      <point x="296" y="30" type="curve" smooth="yes"/>
      <point x="198" y="30"/>
      <point x="119" y="106"/>
      <point x="119" y="204" type="curve" smooth="yes"/>
      <point x="119" y="300"/>
      <point x="192" y="378"/>
      <point x="296" y="378" type="curve" smooth="yes"/>
      <point x="394" y="378"/>
      <point x="470" y="302"/>
      <point x="470" y="204" type="curve" smooth="yes"/>
      <point x="470" y="106"/>
      <point x="393" y="30"/>
    </contour>
  </outline>
</glyph>
<glyph name="tildecomb.case" format="2">
  <advance width="300"/>
  <anchor x="172" y="513" name="_top"/>
  <anchor x="172" y="653" name="top"/>
  <outline>
    <contour>
      <point x="94" y="581" type="line"/>
      <point x="97" y="594" type="line" smooth="yes"/>
      <point x="99" y="603"/>
      <point x="108" y="616"/>
      <point x="122" y="617" type="curve" smooth="yes"/>
      <point x="129" y="618"/>
      <point x="138" y="615"/>
      <point x="147" y="609" type="curve" smooth="yes"/>
      <point x="161" y="600" type="line" smooth="yes"/>
      <point x="185" y="585"/>
      <point x="204" y="577"/>
      <point x="224" y="578" type="curve" smooth="yes"/>
      <point x="252" y="579"/>
      <point x="278" y="601"/>
      <point x="284" y="634" type="curve" smooth="yes"/>
      <point x="285" y="640" type="line"/>
      <point x="249" y="650" type="line"/>
      <point x="246" y="637" type="line" smooth="yes"/>
      <point x="244" y="628"/>
      <point x="235" y="615"/>
      <point x="221" y="614" type="curve" smooth="yes"/>
      <point x="214" y="613"/>
      <point x="205" y="616"/>
      <point x="196" y="622" type="curve" smooth="yes"/>
      <point x="182" y="631" type="line" smooth="yes"/>
      <point x="158" y="646"/>
      <point x="139" y="654"/>
      <point x="119" y="653" type="curve" smooth="yes"/>
      <point x="91" y="652"/>
      <point x="65" y="630"/>
      <point x="59" y="597" type="curve" smooth="yes"/>
      <point x="58" y="591" type="line"/>
    </contour>
  </outline>
</glyph>
<glyph name="zero.ss01" format="2">
  <advance width="597"/>
  <anchor x="299" y="706" name="top"/>
  <outline>
    <contour>
      <point x="299" y="-10" type="curve" smooth="yes"/>
      <point x="419" y="-10"/>
      <point x="517" y="88"/>
      <point x="517" y="208" type="curve" smooth="yes"/>
      <point x="517" y="498" type="line" smooth="yes"/>
      <point x="517" y="618"/>
      <point x="419" y="716"/>
      <point x="299" y="716" type="curve" smooth="yes"/>
      <point x="178" y="716"/>
      <point x="80" y="618"/>
      <point x="80" y="498" type="curve" smooth="yes"/>
      <point x="80" y="208" type="line" smooth="yes"/>
      <point x="80" y="88"/>
      <point x="178" y="-10"/>
    </contour>
    <contour>
      <point x="299" y="30" type="curve" smooth="yes"/>
      <point x="200" y="30"/>
      <point x="120" y="110"/>
      <point x="120" y="208" type="curve" smooth="yes"/>
      <point x="120" y="498" type="line" smooth="yes"/>
      <point x="120" y="596"/>
      <point x="200" y="676"/>
      <point x="299" y="676" type="curve" smooth="yes"/>
      <point x="397" y="676"/>
      <point x="477" y="596"/>
      <point x="477" y="498" type="curve" smooth="yes"/>
      <point x="477" y="208" type="line" smooth="yes"/>
      <point x="477" y="110"/>
      <point x="397" y="30"/>
    </contour>
  </outline>
</glyph>
